<svg width="224" height="242" viewBox="0 0 224 242" fill="none" xmlns="http://www.w3.org/2000/svg">
<path d="M171.696 80.4612L48.3023 104.991C39.518 106.738 34.0371 115.544 36.3497 124.196L68.4768 244.389C70.5865 252.281 78.4599 257.182 86.4728 255.589L194.027 234.207C202.04 232.614 207.441 225.075 206.372 216.975L190.085 93.6345C188.93 84.894 180.742 78.9046 172.107 80.3854L171.696 80.4612Z" fill="url(#paint0_radial_284_6357)" stroke="url(#paint1_linear_284_6357)"/>
<g clip-path="url(#paint2_angular_284_6357_clip_path)" data-figma-skip-parse="true"><g transform="matrix(-0.0709729 0.0141092 0.0137379 0.0691052 125.125 168.812)"><foreignObject x="-1000" y="-1000" width="2000" height="2000"><div xmlns="http://www.w3.org/1999/xhtml" style="background:conic-gradient(from 90deg,rgba(141, 183, 182, 0.2216) 0deg,rgba(141, 183, 182, 0.89) 315deg,rgba(141, 183, 182, 0.13) 316.825deg,rgba(141, 183, 182, 0.2216) 360deg);height:100%;width:100%;opacity:1"></div></foreignObject></g></g><path fill-rule="evenodd" clip-rule="evenodd" d="M184.593 102.528C183.384 93.3615 174.679 87.1246 165.61 88.9274L57.1637 110.486C48.0949 112.289 42.4376 121.381 44.8267 130.313L73.0289 235.753C75.2078 243.899 83.3347 248.956 91.6053 247.312L186.12 228.523C194.391 226.878 199.966 219.098 198.863 210.738L184.593 102.528Z" data-figma-gradient-fill="{&#34;type&#34;:&#34;GRADIENT_ANGULAR&#34;,&#34;stops&#34;:[{&#34;color&#34;:{&#34;r&#34;:0.55294120311737061,&#34;g&#34;:0.71764707565307617,&#34;b&#34;:0.71372550725936890,&#34;a&#34;:0.12999999523162842},&#34;position&#34;:0.88006919622421265},{&#34;color&#34;:{&#34;r&#34;:0.55294120311737061,&#34;g&#34;:0.71764707565307617,&#34;b&#34;:0.71372550725936890,&#34;a&#34;:0.88999998569488525},&#34;position&#34;:0.8750}],&#34;stopsVar&#34;:[{&#34;color&#34;:{&#34;r&#34;:0.55294120311737061,&#34;g&#34;:0.71764707565307617,&#34;b&#34;:0.71372550725936890,&#34;a&#34;:0.12999999523162842},&#34;position&#34;:0.88006919622421265},{&#34;color&#34;:{&#34;r&#34;:0.55294120311737061,&#34;g&#34;:0.71764707565307617,&#34;b&#34;:0.71372550725936890,&#34;a&#34;:0.88999998569488525},&#34;position&#34;:0.8750}],&#34;transform&#34;:{&#34;m00&#34;:-141.94578552246094,&#34;m01&#34;:27.475774765014648,&#34;m02&#34;:182.35992431640625,&#34;m10&#34;:28.218364715576172,&#34;m11&#34;:138.21037292480469,&#34;m12&#34;:85.597656250},&#34;opacity&#34;:1.0,&#34;blendMode&#34;:&#34;NORMAL&#34;,&#34;visible&#34;:true}"/>
<path fill-rule="evenodd" clip-rule="evenodd" d="M156.876 20.3273C154.532 15.3331 149.085 12.5808 143.674 13.6565L56.5614 30.9742C48.9159 32.4941 44.7261 40.7863 48.0384 47.8428L79.2104 114.252C81.5547 119.246 87.002 121.999 92.413 120.923L179.525 103.605C187.171 102.085 191.361 93.7932 188.049 86.7367L156.876 20.3273Z" fill="white"/>
<foreignObject x="26.5747" y="85.2904" width="204.137" height="186.289"><div xmlns="http://www.w3.org/1999/xhtml" style="backdrop-filter:blur(6.8px);clip-path:url(#bgblur_0_284_6357_clip_path);height:100%;width:100%"></div></foreignObject><path data-figma-bg-blur-radius="13.5914" d="M185.69 99.6835L139.704 108.826C135.49 109.663 131.813 112.212 129.55 115.864L109.436 148.329C107.028 152.217 103.113 154.93 98.6274 155.822L53.1501 164.862C44.1244 166.657 38.6403 175.874 41.3696 184.662L60.6003 246.584C62.953 254.159 70.6453 258.735 78.4252 257.189L204.141 232.197C212.093 230.616 217.483 223.174 216.506 215.125L204.099 113.016C203.011 104.062 194.537 97.9249 185.69 99.6835Z" fill="url(#paint3_radial_284_6357)" stroke="url(#paint4_radial_284_6357)"/>
<rect width="48.2412" height="12.695" rx="5" transform="matrix(-0.980807 0.194981 0.194981 0.980807 187.303 116.974)" fill="white"/>
<defs>
<clipPath id="paint2_angular_284_6357_clip_path"><path fill-rule="evenodd" clip-rule="evenodd" d="M184.593 102.528C183.384 93.3615 174.679 87.1246 165.61 88.9274L57.1637 110.486C48.0949 112.289 42.4376 121.381 44.8267 130.313L73.0289 235.753C75.2078 243.899 83.3347 248.956 91.6053 247.312L186.12 228.523C194.391 226.878 199.966 219.098 198.863 210.738L184.593 102.528Z"/></clipPath><clipPath id="bgblur_0_284_6357_clip_path" transform="translate(-26.5747 -85.2904)"><path d="M185.69 99.6835L139.704 108.826C135.49 109.663 131.813 112.212 129.55 115.864L109.436 148.329C107.028 152.217 103.113 154.93 98.6274 155.822L53.1501 164.862C44.1244 166.657 38.6403 175.874 41.3696 184.662L60.6003 246.584C62.953 254.159 70.6453 258.735 78.4252 257.189L204.141 232.197C212.093 230.616 217.483 223.174 216.506 215.125L204.099 113.016C203.011 104.062 194.537 97.9249 185.69 99.6835Z"/>
</clipPath><radialGradient id="paint0_radial_284_6357" cx="0" cy="0" r="1" gradientTransform="matrix(-142.324 38.8163 38.38 138.838 178.579 93.1472)" gradientUnits="userSpaceOnUse">
<stop stop-color="#E4ECEE"/>
<stop offset="1" stop-color="#488981"/>
</radialGradient>
<linearGradient id="paint1_linear_284_6357" x1="230.87" y1="130.609" x2="149.506" y2="224.837" gradientUnits="userSpaceOnUse">
<stop stop-color="white" stop-opacity="0.29535"/>
<stop offset="1" stop-color="white" stop-opacity="0.01"/>
</linearGradient>
<radialGradient id="paint3_radial_284_6357" cx="0" cy="0" r="1" gradientTransform="matrix(-45.5379 128.468 162.013 21.6077 191.331 107.404)" gradientUnits="userSpaceOnUse">
<stop stop-color="white" stop-opacity="0.801593"/>
<stop offset="1" stop-color="#488981" stop-opacity="0.52"/>
</radialGradient>
<radialGradient id="paint4_radial_284_6357" cx="0" cy="0" r="1" gradientTransform="matrix(-19.6378 78.3401 150.777 10.3554 188.245 111.974)" gradientUnits="userSpaceOnUse">
<stop stop-color="white" stop-opacity="0.973411"/>
<stop offset="1" stop-color="white" stop-opacity="0.01"/>
</radialGradient>
</defs>
</svg>
