<svg width="98" height="29" viewBox="0 0 98 29" fill="none" xmlns="http://www.w3.org/2000/svg">
<g clip-path="url(#clip0_1199_26477)">
<path d="M97.6483 11.5995C97.5137 9.76482 96.7829 8.18412 95.4581 6.85933C95.0762 6.47522 94.6744 6.1396 94.2505 5.8549C93.0472 5.04684 91.6673 4.64502 90.111 4.64502C90.0249 4.64502 89.9365 4.64723 89.8504 4.64723C89.7842 4.64945 89.7224 4.65166 89.656 4.65609C89.6472 4.65609 89.6383 4.65609 89.6294 4.65831C87.7153 4.76214 86.0837 5.49738 84.737 6.85933C83.2621 8.33397 82.5249 10.1246 82.5249 12.2308C82.5249 14.3371 83.2623 16.1297 84.737 17.6046C86.1964 19.0792 87.9867 19.8189 90.1107 19.8189C91.952 19.8189 93.5482 19.2537 94.8949 18.1233C94.9921 18.0438 95.0871 17.9599 95.1796 17.8716C95.2746 17.7854 95.3651 17.6971 95.4579 17.6043C96.9328 16.1294 97.67 14.3369 97.67 12.2306C97.67 12.0165 97.6633 11.8066 97.6478 11.5992L97.6483 11.5995ZM93.3587 15.8074C92.469 16.7193 91.3629 17.1762 90.0404 17.1762C88.7178 17.1762 87.6449 16.7193 86.7552 15.8074C85.8214 14.8713 85.3534 13.7653 85.3534 12.489C85.3534 11.2126 85.8015 10.1091 86.6956 9.23038C86.7596 9.15754 86.8302 9.08692 86.9031 9.01852C87.764 8.1354 88.8349 7.69397 90.1154 7.69397C91.3959 7.69397 92.4336 8.1354 93.2945 9.01852C93.7096 9.41148 94.0298 9.85094 94.2505 10.3322C94.5905 10.9725 94.7606 11.6922 94.7606 12.4892C94.7606 13.7653 94.2948 14.8713 93.3587 15.8076V15.8074Z" fill="black"/>
<path d="M81.0194 11.7874C80.8848 9.95281 80.154 8.37211 78.8292 7.04732C78.4473 6.66321 78.0455 6.32759 77.6216 6.04289C76.4183 5.23483 75.0384 4.83301 73.4821 4.83301C73.396 4.83301 73.3076 4.83522 73.2215 4.83522C73.1553 4.83744 73.0935 4.83965 73.0271 4.84408C73.0182 4.84408 73.0094 4.84408 73.0005 4.8463C71.0864 4.95013 69.4548 5.68512 68.1081 7.04732C66.6332 8.52196 65.896 10.3126 65.896 12.4188C65.896 14.5251 66.6334 16.3177 68.1081 17.7926C69.5675 19.2672 71.3578 20.0069 73.4818 20.0069C75.3231 20.0069 76.9193 19.4417 78.266 18.3113C78.3632 18.2318 78.4582 18.1479 78.5507 18.0596C78.6457 17.9734 78.7362 17.8851 78.829 17.7923C80.3039 16.3177 81.0411 14.5249 81.0411 12.4186C81.0411 12.2045 81.0344 11.9946 81.0189 11.7872L81.0194 11.7874ZM76.7296 15.9953C75.8398 16.907 74.7338 17.3642 73.4112 17.3642C72.0886 17.3642 71.0158 16.9072 70.126 15.9953C69.1922 15.0593 68.7242 13.9533 68.7242 12.677C68.7242 11.4006 69.1723 10.297 70.0665 9.41836C70.1305 9.34553 70.2011 9.27491 70.2739 9.2065C71.1349 8.32339 72.2057 7.88196 73.4863 7.88196C74.7668 7.88196 75.8044 8.32339 76.6654 9.2065C77.0805 9.59946 77.4006 10.0389 77.6213 10.5202C77.9614 11.1605 78.1314 11.8802 78.1314 12.6772C78.1314 13.9533 77.6656 15.0593 76.7296 15.9956V15.9953Z" fill="black"/>
<path d="M28.8895 11.7874C28.7549 9.95281 28.0241 8.37211 26.6994 7.04732C26.3175 6.66321 25.9156 6.32759 25.4917 6.04289C24.2884 5.23483 22.9085 4.83301 21.3522 4.83301C21.2661 4.83301 21.1777 4.83522 21.0916 4.83522C21.0254 4.83744 20.9637 4.83965 20.8972 4.84408C20.8884 4.84408 20.8795 4.84408 20.8706 4.8463C18.9565 4.95013 17.3249 5.68512 15.9782 7.04732C14.5033 8.52196 13.7661 10.3126 13.7661 12.4188C13.7661 14.5251 14.5036 16.3177 15.9782 17.7926C17.4376 19.2672 19.2279 20.0069 21.3519 20.0069C23.1932 20.0069 24.7894 19.4417 26.1361 18.3113C26.2333 18.2318 26.3283 18.1479 26.4208 18.0596C26.5158 17.9734 26.6063 17.8851 26.6991 17.7923C28.174 16.3177 28.9112 14.5249 28.9112 12.4186C28.9112 12.2045 28.9046 11.9946 28.8891 11.7872L28.8895 11.7874ZM24.5997 15.9953C23.7099 16.907 22.6039 17.3642 21.2813 17.3642C19.9587 17.3642 18.8859 16.9072 17.9962 15.9953C17.0624 15.0593 16.5943 13.9533 16.5943 12.677C16.5943 11.4006 17.0424 10.297 17.9366 9.41836C18.0006 9.34553 18.0712 9.27491 18.144 9.2065C19.005 8.32339 20.0759 7.88196 21.3564 7.88196C22.6369 7.88196 23.6745 8.32339 24.5355 9.2065C24.9506 9.59946 25.2707 10.0389 25.4914 10.5202C25.8315 11.1605 26.0015 11.8802 26.0015 12.6772C26.0015 13.9533 25.5357 15.0593 24.5997 15.9956V15.9953Z" fill="black"/>
<path d="M9.04636 16.695C7.87412 16.4854 6.15194 15.8759 5.05475 14.8316C3.76982 13.4871 3.12071 11.9394 3.1052 10.1865C3.10299 10.2086 3.10299 10.2327 3.10299 10.2549C3.10299 10.4844 3.10742 10.6921 3.12513 10.8863C3.14507 11.0806 3.16697 11.277 3.19797 11.4692C3.46076 12.8314 4.07887 13.9992 5.05475 14.9706C6.02841 15.8803 7.05055 16.2312 8.12363 16.525C8.3158 16.5868 8.78824 16.6662 9.18563 16.726C9.20777 16.7305 9.22967 16.7327 9.25182 16.7349L9.0466 16.6953L9.04636 16.695ZM11.7442 0L9.63125 0.0243601C8.3751 0.0376474 7.12093 0.282725 5.95312 0.819139C5.72133 0.925191 5.49618 1.04207 5.27743 1.16584C4.43197 1.62499 3.6613 2.20791 2.96372 2.90992C2.24177 3.63851 1.67436 4.40229 1.26589 5.20149C0.568556 6.42245 0.164523 7.7625 0.0429688 9.21746C0.095872 8.6434 0.190852 8.08706 0.332091 7.54621C0.352022 7.46895 0.371707 7.39169 0.396067 7.31664C0.415998 7.23937 0.440112 7.16433 0.464472 7.08928C0.486618 7.01423 0.510732 6.93918 0.537306 6.86635C0.587995 6.71846 0.643359 6.57058 0.700691 6.4227C0.758023 6.27703 0.819785 6.13136 0.886221 5.98766C1.03853 5.64982 1.21299 5.31862 1.40738 4.99628C1.44503 4.9323 1.48464 4.86833 1.5245 4.80632C1.56412 4.74234 1.60398 4.67837 1.64581 4.61636C1.68764 4.55238 1.72972 4.49062 1.77377 4.4264C1.8156 4.36464 1.85989 4.30288 1.90615 4.24087C1.95019 4.17911 1.9967 4.1171 2.04296 4.05534C2.22184 3.81912 2.41377 3.58733 2.61702 3.35776C2.65885 3.31125 2.70092 3.26278 2.74497 3.21652C2.81559 3.13925 2.88842 3.06199 2.96347 2.98473C4.602 1.38213 6.45656 0.437251 8.52963 0.145668C8.79464 0.103838 11.3446 0.0155019 11.7727 0.00221455C11.7639 0 11.7528 0 11.7439 0L11.7442 0ZM11.8876 20.3621C11.848 20.3643 11.8126 20.3687 11.7727 20.3709C11.8104 20.3732 11.8323 20.3732 11.8323 20.3732C11.8852 20.3732 11.9361 20.3687 11.9868 20.3599C12.1768 20.3244 12.3291 20.1347 12.3291 19.9425V19.8586C12.318 20.2053 11.9713 20.3599 11.8876 20.3621Z" fill="black"/>
<path d="M12.3289 19.0355L12.3311 19.3313C12.3311 19.3313 12.3289 19.8525 12.3289 19.8547V19.8591C12.3178 20.2058 11.9711 20.3603 11.8875 20.3626C11.8479 20.3648 11.8124 20.3692 11.7726 20.3714C11.3442 20.3581 8.79423 20.272 8.52947 20.228C6.4564 19.9366 4.60183 18.9915 2.9638 17.3909C2.68329 17.1017 2.42296 16.8057 2.18453 16.5011C2.13605 16.4416 2.08955 16.3796 2.04329 16.3178C1.99703 16.2582 1.95052 16.1962 1.90648 16.1345C1.50023 15.5759 1.16239 14.9952 0.886552 14.3882C0.82479 14.2536 0.767458 14.1187 0.712094 13.9819C0.650333 13.8252 0.593 13.6684 0.537637 13.5095C0.513277 13.4344 0.486948 13.3594 0.464802 13.2843C0.416328 13.1342 0.372037 12.9819 0.332421 12.8296C0.233013 12.4455 0.155749 12.0548 0.100631 11.653C0.0917732 11.5978 0.0851296 11.5403 0.0784859 11.4851C0.0651986 11.3771 0.0541258 11.2666 0.0430531 11.1562C0.0231221 10.9155 0.00983478 10.6727 0.00319112 10.4254C0.000976562 10.3348 0.000976562 10.2443 0.000976562 10.1515C0.000976562 10.0831 0.000976562 10.0169 0.00319112 9.94849C0.00319112 9.86459 0.00762022 9.78289 0.0120493 9.69899V9.69677C0.0164784 9.61508 0.0209075 9.53339 0.0253366 9.45169V9.44727C0.0297658 9.37 0.0364094 9.29274 0.0430531 9.21769C0.0959563 8.64363 0.190936 8.08728 0.332175 7.54644C0.352106 7.46918 0.374006 7.39191 0.396151 7.31687C0.418297 7.24182 0.440196 7.16455 0.464556 7.0895C0.486702 7.01446 0.51303 6.93941 0.537391 6.86657C0.588079 6.71869 0.643443 6.57081 0.700775 6.42292C0.758108 6.27504 0.819869 6.13159 0.886306 5.98789C1.03862 5.65004 1.21308 5.31885 1.40746 4.99651C1.44511 4.93253 1.48473 4.86855 1.52459 4.80655C1.56421 4.74257 1.60407 4.67859 1.6459 4.61659C1.68773 4.55261 1.7298 4.49085 1.77385 4.42663C1.81568 4.36487 1.85997 4.3031 1.90623 4.2411C1.95028 4.17934 1.99678 4.11733 2.04304 4.05557C2.22193 3.81935 2.41386 3.58756 2.6171 3.35798C2.65893 3.31148 2.70101 3.263 2.74505 3.21674C2.81567 3.13948 2.88851 3.06222 2.96356 2.98495C4.60159 1.38235 6.45615 0.437478 8.52922 0.145895C8.79423 0.104065 11.3442 0.0157287 11.7723 0.00244141C11.8122 0.00465596 11.8474 0.00908507 11.8872 0.0112996C11.9711 0.0157287 12.3178 0.168041 12.3287 0.514741V0.519171C12.3287 0.521385 12.3309 1.04254 12.3309 1.04451L12.3287 1.33806C12.3287 1.35356 12.3287 1.36907 12.3264 1.38432V1.39982C12.2735 1.98053 12.119 2.49258 11.7812 2.87029C11.4433 3.24996 10.9246 3.49725 10.1431 3.54597C9.85402 3.56369 9.56465 3.59223 9.27553 3.63431C9.24452 3.63874 9.21598 3.64317 9.18497 3.6476C8.78759 3.70714 8.31515 3.78662 8.12297 3.84863C7.0499 4.14218 6.02776 4.49331 5.0541 5.403C4.07822 6.37445 3.46011 7.54226 3.19732 8.90445C3.16631 9.09663 3.14441 9.29298 3.12448 9.48737C3.10676 9.68373 3.10234 9.89141 3.10234 10.1188C3.10234 10.1409 3.10234 10.165 3.10455 10.1872C3.10234 10.2093 3.10234 10.2334 3.10234 10.2556C3.10234 10.4852 3.10676 10.6928 3.12448 10.887C3.14441 11.0814 3.16631 11.2777 3.19732 11.4699C3.46011 12.8321 4.07822 13.9999 5.0541 14.9713C6.02776 15.881 7.0499 16.2319 8.12297 16.5257C8.31515 16.5875 8.78759 16.667 9.18497 16.7267C9.20712 16.7312 9.22902 16.7334 9.25117 16.7356C9.54693 16.7797 9.84516 16.8107 10.1431 16.8284C10.9246 16.8768 11.4436 17.1241 11.7812 17.5041C12.119 17.8815 12.2735 18.3938 12.3264 18.9745V18.99C12.3287 19.0055 12.3287 19.021 12.3287 19.0363L12.3289 19.0355Z" fill="black"/>
<path d="M46.8171 11.9905C46.8149 11.911 46.8105 11.8315 46.8038 11.7542C46.6693 9.91961 45.9384 8.33891 44.6137 7.01411C44.2935 6.69177 43.9601 6.40486 43.6114 6.15314C43.543 6.10467 43.4746 6.05595 43.4062 6.00969C42.203 5.20162 40.8231 4.7998 39.2667 4.7998C39.1806 4.7998 39.0923 4.80202 39.0062 4.80202C38.94 4.80423 38.8782 4.80645 38.8118 4.81088C38.8029 4.81088 38.7941 4.81088 38.7852 4.81309C36.8711 4.91668 35.2395 5.65192 33.8928 7.01411C32.4179 8.489 31.6807 10.2793 31.6807 12.3856C31.6807 14.4919 32.4181 16.2845 33.8928 17.7594C35.3521 19.234 37.1425 19.9737 39.2665 19.9737C41.1078 19.9737 42.704 19.4085 44.0507 18.2781C44.1479 18.1986 44.2428 18.1147 44.3354 18.0263C44.4303 17.9402 44.5209 17.8519 44.6137 17.7591C45.733 16.6398 46.4284 15.3349 46.6956 13.8492C46.7618 13.5025 46.8016 13.145 46.8171 12.7761C46.8238 12.6482 46.826 12.5178 46.826 12.3854C46.826 12.253 46.8238 12.1204 46.8171 11.9902V11.9905ZM43.2537 15.035C43.0526 15.3595 42.8056 15.6708 42.514 15.9624C42.2379 16.2449 41.94 16.4855 41.6198 16.6799C40.9156 17.1103 40.1097 17.3268 39.2001 17.3268C37.8996 17.3268 36.8046 16.8699 35.9149 15.958C34.9811 15.0219 34.5131 13.9159 34.5131 12.6396C34.5131 11.7498 34.7249 10.9595 35.1489 10.2641C35.3389 9.95282 35.5729 9.65903 35.8509 9.38541C35.8524 9.38393 35.8539 9.38245 35.8553 9.38098C35.8753 9.35883 35.895 9.34111 35.9149 9.32143C36.8046 8.40953 37.8996 7.95259 39.2001 7.95259C40.5005 7.95259 41.6287 8.40953 42.5182 9.32143C42.8538 9.64156 43.1297 9.98826 43.344 10.3635C43.3661 10.4031 43.388 10.443 43.4102 10.4828C43.7502 11.1231 43.9203 11.8428 43.9203 12.6398C43.9203 13.5185 43.6995 14.3177 43.2534 15.0352L43.2537 15.035Z" fill="black"/>
<path d="M46.7352 0.258789H45.3354C45.013 0.258789 44.7283 0.29619 44.4811 0.369271C43.9865 0.514939 43.6575 0.985163 43.6575 1.49968L43.6112 6.15368V6.2243L43.1983 5.98587C42.3297 5.46988 44.547 10.397 46.1122 12.9656C46.3061 13.2838 46.8004 13.16 46.8164 12.788C46.8164 12.7843 46.8167 12.7806 46.8169 12.7769V0.459575C46.8169 0.382312 46.7859 0.311692 46.7352 0.258789Z" fill="black"/>
<path d="M61.9492 22.707C61.9494 22.7092 61.9497 22.7107 61.9499 22.7129C61.8773 22.8153 61.8084 22.9181 61.7307 23.0205C61.7285 23.0249 61.7262 23.0271 61.724 23.0316C61.7218 23.036 61.7196 23.0404 61.7174 23.0426C61.5806 23.2282 61.4283 23.4137 61.2605 23.5901C61.2295 23.6256 61.1965 23.6608 61.1633 23.6962C61.1433 23.7161 61.1236 23.738 61.1037 23.7557C61.0619 23.7976 61.0176 23.8396 60.9735 23.8837C60.7639 24.0845 60.5343 24.2678 60.287 24.4334C60.2231 24.4752 60.1591 24.5195 60.0907 24.5613C60.0685 24.5768 60.0488 24.5879 60.0245 24.6012C59.6581 24.8263 59.2186 25.0362 58.7063 25.1908C56.7767 25.7848 54.4278 25.7382 52.4539 24.6984C52.3412 24.6388 52.2332 24.5768 52.1294 24.5084C52.0809 24.4796 52.0344 24.4467 51.9881 24.4157C51.9837 24.4135 51.9793 24.4112 51.9748 24.4068C51.9286 24.3736 51.8821 24.3406 51.838 24.3074C51.7895 24.2722 51.7408 24.2346 51.6946 24.1969C51.6483 24.1617 51.6018 24.1219 51.5578 24.0842C51.5223 24.0554 51.4893 24.0247 51.4561 23.9959C51.2817 23.8414 51.1205 23.6758 50.9682 23.5035C50.8358 23.3512 50.712 23.1967 50.5974 23.0399C50.5378 22.9582 50.4825 22.8788 50.4274 22.7971C50.4052 22.7639 50.3833 22.7309 50.3612 22.6955C50.0676 22.2427 49.8422 21.7924 49.681 21.4017C49.5624 21.1157 49.7726 20.8013 50.0819 20.8013H51.3459C51.4662 20.8013 51.5865 20.8094 51.7051 20.8296C51.7111 20.8306 51.7172 20.8315 51.7234 20.8328C51.9724 20.8766 52.1958 21.0109 52.3607 21.2026C52.3614 21.2036 52.3624 21.2046 52.3631 21.2055C52.4027 21.2518 52.447 21.3027 52.4933 21.3534C52.5287 21.393 52.5683 21.4351 52.6104 21.4772C52.6126 21.4794 52.6148 21.4816 52.6171 21.4838C52.6855 21.5545 52.7583 21.6251 52.8378 21.6982C53.0983 21.9344 53.4207 22.1772 53.8203 22.3758C53.8203 22.3758 53.8225 22.378 53.8247 22.378C54.3788 22.6519 55.0764 22.8416 55.9551 22.8153C56.0986 22.8109 56.2334 22.8042 56.3636 22.7954H56.3658C57.2533 22.8219 57.9598 22.6275 58.5161 22.3495C58.5176 22.3495 58.5191 22.3488 58.5206 22.3473C58.8936 22.1573 59.2007 21.9322 59.4521 21.7092C59.5757 21.5988 59.6862 21.4885 59.7833 21.3847L59.7856 21.3825C59.9667 21.3362 60.2536 21.4487 60.587 21.6519C61.0065 21.9081 61.4989 22.3077 61.9492 22.7073V22.707Z" fill="black"/>
<path d="M62.7134 21.2278C62.5478 21.6607 62.296 22.1838 61.9496 22.7069C61.9297 22.7379 61.91 22.7709 61.8878 22.8019C61.8371 22.8747 61.7862 22.9476 61.7311 23.0204C61.7289 23.0248 61.7267 23.027 61.7244 23.0315C61.7222 23.0359 61.72 23.0403 61.7178 23.0425C61.581 23.2281 61.4287 23.4136 61.2609 23.59C61.2299 23.6255 61.1969 23.6606 61.1637 23.6961C61.1437 23.716 61.1241 23.7379 61.1041 23.7556C61.0623 23.7975 61.018 23.8395 60.974 23.8836C60.7643 24.0844 60.5347 24.2677 60.2874 24.4333C60.2235 24.4751 60.1595 24.5194 60.0911 24.5612C60.0689 24.5767 60.0493 24.5878 60.0249 24.6011C59.6585 24.8262 59.2191 25.0361 58.7068 25.1907C56.7771 25.7846 54.4282 25.7381 52.4543 24.6983C52.3416 24.6387 52.2336 24.5767 52.1298 24.5083C52.0813 24.4795 52.0348 24.4466 51.9885 24.4156C51.9841 24.4133 51.9797 24.4111 51.9752 24.4067C51.929 24.3735 51.8825 24.3405 51.8384 24.3073C51.79 24.2721 51.7412 24.2345 51.695 24.1968C51.6487 24.1616 51.6022 24.1218 51.5582 24.0841C51.5227 24.0553 51.4898 24.0246 51.4565 23.9958C51.2821 23.8413 51.1209 23.6757 50.9686 23.5034C50.8362 23.3511 50.7125 23.1966 50.5978 23.0398C50.5144 22.9254 50.4396 22.8154 50.3613 22.6978C50.3613 22.6971 50.3613 22.6963 50.3616 22.6956C50.8384 22.2761 51.3616 21.8521 51.7988 21.5959C51.9644 21.4965 52.1189 21.4237 52.2513 21.3841C52.3793 21.3445 52.5163 21.3841 52.6113 21.4768C52.6135 21.4791 52.6157 21.4813 52.618 21.4835C52.6864 21.5541 52.7592 21.6247 52.8387 21.6978C53.0993 21.934 53.4216 22.1769 53.8212 22.3755C53.8212 22.3755 53.8234 22.3777 53.8256 22.3777C54.3798 22.6515 55.0773 22.8413 55.956 22.8149C56.0995 22.8105 56.2343 22.8039 56.3645 22.795H56.3667C57.2542 22.8216 57.9607 22.6272 58.517 22.3491C58.5185 22.3491 58.52 22.3484 58.5215 22.3469C58.8945 22.157 59.2016 21.9318 59.4531 21.7089C59.5766 21.5984 59.6871 21.4882 59.7843 21.3843L59.7865 21.3821C59.8416 21.3226 59.8947 21.2628 59.941 21.2077C59.942 21.2064 59.943 21.2054 59.9439 21.2042C60.1273 20.9941 60.3768 20.8514 60.6521 20.8073C60.7338 20.7943 60.7956 20.7879 60.8241 20.7859C60.8374 20.7837 60.8485 20.7837 60.8595 20.7837H62.4132C62.64 20.7837 62.7965 21.0108 62.7158 21.2229L62.7141 21.2276L62.7134 21.2278Z" fill="black"/>
<path d="M64.9233 6.64968C64.8616 6.53698 64.7777 6.42896 64.6783 6.32733C64.6783 6.32069 64.5988 6.24343 64.4861 6.13959C64.3249 5.99392 64.0998 5.7951 63.9585 5.68265C63.3933 5.23236 62.5985 5.22793 62.0311 5.6738C61.9516 5.73777 61.5939 6.09554 61.4615 6.17059C61.4593 6.17059 61.4571 6.17059 61.4571 6.17281C61.318 6.24786 61.1569 6.28993 60.9891 6.28993C60.8611 6.28993 60.7418 6.26557 60.6313 6.22153C60.5203 6.17847 60.0215 5.80495 59.853 5.70874C58.7575 5.08251 57.524 4.771 56.1539 4.771C56.0678 4.771 55.9795 4.77321 55.8934 4.77321C55.8272 4.77543 55.7654 4.77764 55.699 4.78207C55.6901 4.78207 55.6813 4.78207 55.6724 4.78428C53.7583 4.88812 52.1267 5.62335 50.78 6.9853C49.3051 8.45995 48.5679 10.2505 48.5679 12.3568C48.5679 14.4631 49.3053 16.2557 50.78 17.7306C52.2394 19.2055 54.0297 19.9449 56.1537 19.9449C57.995 19.9449 59.5912 19.3797 60.9379 18.2493C61.0351 18.1698 61.13 18.0859 61.2226 17.9975C61.3175 17.9114 61.4081 17.8231 61.5006 17.7303C62.9755 16.2557 63.7127 14.4629 63.7127 12.3566C63.7127 12.1423 63.7061 11.9326 63.6906 11.7252C63.6551 11.2395 63.5779 10.7692 63.4566 10.3189C63.4499 10.2968 63.4433 10.2727 63.4366 10.2483C63.4211 10.1777 63.4123 10.1027 63.4123 10.0276C63.4123 9.73184 63.5447 9.46462 63.7523 9.28573C63.7612 9.27687 63.77 9.27023 63.7789 9.26137C63.8827 9.16418 63.9755 9.08027 64.0417 9.01408C64.0793 8.97668 64.3707 8.67845 64.6357 8.34086C64.7073 8.25006 64.7767 8.1568 64.8392 8.06502C64.9364 7.92231 65.0149 7.76556 65.051 7.59677C65.0712 7.50228 65.0815 7.40459 65.0815 7.30543C65.0815 7.06921 65.0242 6.84628 64.9226 6.64968H64.9233ZM59.2162 15.6417C58.2912 16.5692 57.196 17.0327 55.9332 17.0327C54.6704 17.0327 53.529 16.5692 52.6481 15.6417C52.3102 15.3128 52.0344 14.953 51.8223 14.5645C51.8156 14.5578 51.8134 14.549 51.8112 14.5401C51.4667 13.8954 51.2945 13.1691 51.2945 12.361C51.2945 11.0716 51.7448 9.97889 52.6478 9.07363C53.5509 8.1728 54.6458 7.72029 55.933 7.72029C56.6173 7.72029 57.2597 7.85931 57.8537 8.13318C58.3372 8.35833 58.7898 8.66959 59.2159 9.07363C60.119 10.0229 60.5693 11.1179 60.5693 12.361C60.5693 13.6041 60.119 14.7409 59.2159 15.6417H59.2162Z" fill="black"/>
<path d="M68.6559 21.6365V22.0917H66.2262V23.5372H68.3976V23.9863H66.2262V25.4872H68.7359V25.9424H65.7341V21.6365H68.6559ZM71.9368 23.5003C71.6744 23.2461 71.3525 23.1189 70.9711 23.1189C70.7496 23.1189 70.5507 23.1702 70.3744 23.2727C70.2022 23.3752 70.0668 23.5188 69.9684 23.7033C69.87 23.8838 69.8208 24.0908 69.8208 24.3246C69.8208 24.5624 69.87 24.7736 69.9684 24.9582C70.0668 25.1386 70.2022 25.2801 70.3744 25.3826C70.5507 25.4851 70.7496 25.5364 70.9711 25.5364C71.1843 25.5364 71.375 25.5015 71.5431 25.4318C71.7154 25.358 71.8589 25.2534 71.9737 25.1181L72.2505 25.4011C72.1029 25.5774 71.9184 25.7148 71.6969 25.8132C71.4755 25.9116 71.2274 25.9608 70.9526 25.9608C70.641 25.9608 70.3641 25.8932 70.1222 25.7578C69.8802 25.6184 69.6896 25.4257 69.5501 25.1796C69.4148 24.9295 69.3471 24.6445 69.3471 24.3246C69.3471 24.0088 69.4148 23.7279 69.5501 23.4819C69.6896 23.2317 69.8802 23.0369 70.1222 22.8975C70.3682 22.7581 70.6451 22.6883 70.9526 22.6883C71.211 22.6883 71.4447 22.7314 71.6539 22.8175C71.8671 22.8995 72.0496 23.0164 72.2013 23.1682L71.9368 23.5003ZM74.2814 22.6883C74.5972 22.6883 74.8802 22.7581 75.1303 22.8975C75.3805 23.0328 75.5753 23.2256 75.7147 23.4757C75.8541 23.7218 75.9238 24.0027 75.9238 24.3184C75.9238 24.6342 75.8541 24.9172 75.7147 25.1673C75.5753 25.4175 75.3805 25.6123 75.1303 25.7517C74.8802 25.8911 74.5972 25.9608 74.2814 25.9608C73.9616 25.9608 73.6766 25.8911 73.4264 25.7517C73.1804 25.6123 72.9876 25.4195 72.8482 25.1735C72.7088 24.9233 72.639 24.6383 72.639 24.3184C72.639 24.0027 72.7088 23.7218 72.8482 23.4757C72.9876 23.2256 73.1804 23.0328 73.4264 22.8975C73.6766 22.7581 73.9616 22.6883 74.2814 22.6883ZM74.2814 23.1128C74.0559 23.1128 73.8549 23.164 73.6786 23.2666C73.5023 23.3691 73.3649 23.5126 73.2665 23.6972C73.168 23.8817 73.1188 24.0908 73.1188 24.3246C73.1188 24.5624 73.168 24.7736 73.2665 24.9582C73.3649 25.1427 73.5023 25.2862 73.6786 25.3888C73.8549 25.4913 74.0559 25.5425 74.2814 25.5425C74.507 25.5425 74.7079 25.4913 74.8843 25.3888C75.0606 25.2862 75.198 25.1427 75.2964 24.9582C75.3948 24.7736 75.444 24.5624 75.444 24.3246C75.444 24.0908 75.3948 23.8817 75.2964 23.6972C75.198 23.5126 75.0585 23.3691 74.8781 23.2666C74.7018 23.164 74.5029 23.1128 74.2814 23.1128ZM78.4776 23.3465C78.3505 23.2645 78.209 23.201 78.0532 23.1558C77.8973 23.1107 77.7456 23.0882 77.598 23.0882C77.4052 23.0882 77.2494 23.1251 77.1305 23.1989C77.0157 23.2686 76.9583 23.3773 76.9583 23.5249C76.9583 23.6274 76.9911 23.7115 77.0567 23.7771C77.1223 23.8427 77.2043 23.8961 77.3027 23.9371C77.4011 23.974 77.5365 24.0191 77.7087 24.0724C77.9343 24.1421 78.1167 24.2098 78.2562 24.2754C78.3997 24.341 78.5207 24.4353 78.6191 24.5583C78.7175 24.6814 78.7667 24.8434 78.7667 25.0443C78.7667 25.3437 78.6519 25.5713 78.4223 25.7271C78.1967 25.8829 77.9158 25.9608 77.5795 25.9608C77.3458 25.9608 77.1182 25.9219 76.8967 25.844C76.6753 25.7619 76.4887 25.6492 76.337 25.5056L76.5215 25.155C76.6568 25.2821 76.8209 25.3826 77.0136 25.4564C77.2105 25.5302 77.4052 25.5672 77.598 25.5672C77.803 25.5672 77.9691 25.5261 78.0962 25.4441C78.2275 25.3621 78.2931 25.2411 78.2931 25.0812C78.2931 24.9254 78.2295 24.8085 78.1024 24.7306C77.9753 24.6527 77.7825 24.5768 77.5242 24.503C77.3068 24.4374 77.1305 24.3738 76.9952 24.3123C76.8598 24.2467 76.743 24.1544 76.6445 24.0355C76.5502 23.9166 76.5031 23.7607 76.5031 23.568C76.5031 23.2768 76.6097 23.0574 76.8229 22.9098C77.0362 22.7581 77.3048 22.6822 77.6287 22.6822C77.8174 22.6822 78.0019 22.7089 78.1824 22.7622C78.3628 22.8155 78.5227 22.8872 78.6622 22.9775L78.4776 23.3465ZM80.5703 26.4037C80.4677 26.6498 80.3345 26.8364 80.1704 26.9635C80.0064 27.0906 79.8157 27.1542 79.5984 27.1542C79.3359 27.1542 79.1083 27.0763 78.9156 26.9204L79.1186 26.5391C79.2621 26.6416 79.4138 26.6928 79.5738 26.6928C79.7009 26.6928 79.8137 26.6518 79.9121 26.5698C80.0146 26.4919 80.0987 26.3771 80.1643 26.2253L80.2996 25.9178L78.9586 22.7068H79.463L80.5395 25.4011L81.5668 22.7068H82.0589L80.5703 26.4037ZM84.3165 23.3465C84.1894 23.2645 84.0479 23.201 83.8921 23.1558C83.7363 23.1107 83.5845 23.0882 83.4369 23.0882C83.2442 23.0882 83.0883 23.1251 82.9694 23.1989C82.8546 23.2686 82.7972 23.3773 82.7972 23.5249C82.7972 23.6274 82.83 23.7115 82.8956 23.7771C82.9612 23.8427 83.0432 23.8961 83.1416 23.9371C83.2401 23.974 83.3754 24.0191 83.5476 24.0724C83.7732 24.1421 83.9557 24.2098 84.0951 24.2754C84.2386 24.341 84.3596 24.4353 84.458 24.5583C84.5564 24.6814 84.6057 24.8434 84.6057 25.0443C84.6057 25.3437 84.4908 25.5713 84.2612 25.7271C84.0356 25.8829 83.7547 25.9608 83.4185 25.9608C83.1847 25.9608 82.9571 25.9219 82.7357 25.844C82.5142 25.7619 82.3276 25.6492 82.1759 25.5056L82.3604 25.155C82.4958 25.2821 82.6598 25.3826 82.8525 25.4564C83.0494 25.5302 83.2442 25.5672 83.4369 25.5672C83.642 25.5672 83.808 25.5261 83.9352 25.4441C84.0664 25.3621 84.132 25.2411 84.132 25.0812C84.132 24.9254 84.0684 24.8085 83.9413 24.7306C83.8142 24.6527 83.6214 24.5768 83.3631 24.503C83.1457 24.4374 82.9694 24.3738 82.8341 24.3123C82.6988 24.2467 82.5819 24.1544 82.4835 24.0355C82.3891 23.9166 82.342 23.7607 82.342 23.568C82.342 23.2768 82.4486 23.0574 82.6618 22.9098C82.8751 22.7581 83.1437 22.6822 83.4677 22.6822C83.6563 22.6822 83.8408 22.7089 84.0213 22.7622C84.2017 22.8155 84.3617 22.8872 84.5011 22.9775L84.3165 23.3465ZM87.0669 25.7209C86.825 25.8809 86.5769 25.9608 86.3226 25.9608C86.0766 25.9608 85.8797 25.885 85.7321 25.7332C85.5845 25.5774 85.5107 25.3478 85.5107 25.0443V23.1805H85.0432V22.8052H85.5107V21.9563H85.9843V22.8052H87.0116V23.1805H85.9843V24.9643C85.9843 25.1571 86.0192 25.2985 86.0889 25.3888C86.1627 25.4749 86.2714 25.5179 86.4149 25.5179C86.583 25.5097 86.7553 25.4544 86.9316 25.3519L87.0669 25.7209ZM89.022 22.6883C89.5346 22.6883 89.9201 22.8524 90.1785 23.1805C90.4409 23.5044 90.5599 23.9453 90.5353 24.503H87.8902C87.9312 24.8228 88.0583 25.0792 88.2716 25.2719C88.4848 25.4646 88.7493 25.561 89.0651 25.561C89.2619 25.561 89.4465 25.5261 89.6187 25.4564C89.791 25.3826 89.9406 25.2801 90.0678 25.1489L90.3323 25.4257C90.1764 25.5979 89.9857 25.7312 89.7602 25.8255C89.5387 25.9157 89.2947 25.9608 89.0282 25.9608C88.7124 25.9608 88.4315 25.8932 88.1855 25.7578C87.9435 25.6184 87.7549 25.4257 87.6195 25.1796C87.4842 24.9295 87.4166 24.6445 87.4166 24.3246C87.4166 24.0088 87.4842 23.7279 87.6195 23.4819C87.7549 23.2317 87.9435 23.0369 88.1855 22.8975C88.4315 22.7581 88.7104 22.6883 89.022 22.6883ZM90.1047 24.1216C90.0883 23.8058 89.9816 23.5557 89.7848 23.3711C89.5921 23.1825 89.3378 23.0882 89.022 23.0882C88.7104 23.0882 88.452 23.1825 88.247 23.3711C88.0419 23.5557 87.923 23.8058 87.8902 24.1216H90.1047ZM95.511 22.6883C95.8883 22.6883 96.1835 22.8011 96.3968 23.0267C96.61 23.2481 96.7166 23.5557 96.7166 23.9494V25.9424H96.2368V24.0724C96.2368 23.7812 96.1569 23.5536 95.9969 23.3896C95.837 23.2256 95.6176 23.1435 95.3387 23.1435C95.0066 23.1517 94.7462 23.2666 94.5575 23.488C94.373 23.7054 94.2807 23.9924 94.2807 24.3492V25.9424H93.7948V24.0724C93.7948 23.7812 93.7148 23.5536 93.5549 23.3896C93.399 23.2256 93.1796 23.1435 92.8967 23.1435C92.5686 23.1517 92.3082 23.2666 92.1155 23.488C91.9268 23.7095 91.8325 23.9965 91.8325 24.3492V25.9424H91.3589V22.7068H91.8325V23.4388C91.9391 23.1928 92.097 23.0082 92.3062 22.8852C92.5153 22.7581 92.7696 22.6925 93.0689 22.6883C93.3724 22.6883 93.6246 22.7622 93.8255 22.9098C94.0265 23.0574 94.1618 23.2645 94.2315 23.5311C94.3299 23.2522 94.4878 23.0431 94.7052 22.9036C94.9266 22.7642 95.1952 22.6925 95.511 22.6883Z" fill="black"/>
</g>
<defs>
<clipPath id="clip0_1199_26477">
<rect width="97.6699" height="28.4986" fill="white"/>
</clipPath>
</defs>
</svg>
