<svg width="99" height="24" viewBox="0 0 99 24" fill="none" xmlns="http://www.w3.org/2000/svg">
<g clip-path="url(#clip0_1015_15123)">
<g clip-path="url(#clip1_1015_15123)">
<path d="M23.4212 8.82467C22.2976 8.62032 21.588 8.80756 20.6199 9.45166C19.5435 10.1654 18.9218 11.2216 18.4814 12.389C18.1074 13.3794 17.9613 14.4208 17.893 15.4755C17.8489 16.0613 17.7819 16.6632 17.6599 17.2356C17.5578 17.6912 17.2393 17.8893 16.7711 17.8372C16.6154 17.8105 16.4544 17.7669 16.2994 17.7123C15.1879 17.2735 14.4518 16.3979 13.8533 15.3974C13.1815 14.216 12.6856 12.9445 12.3815 11.6056C11.9056 9.60781 11.4746 7.6057 11.0943 5.58823C10.8899 4.48685 10.622 3.66324 10.2092 2.81887C9.89179 2.16719 9.46187 1.54037 8.89974 0.842802C8.47032 0.400472 8.28764 0.132674 7.70705 -0.503906C5.98882 0.37663 4.89503 1.5204 4.36941 2.13201C3.71641 2.90222 2.86066 4.13083 2.32262 5.79869C1.57131 8.10355 1.80172 10.0833 1.971 11.0384C2.14028 11.9934 2.59006 13.7221 3.84984 15.4732C4.38839 16.2148 5.81499 17.9985 8.37888 19.0868C10.3793 19.9303 12.1669 19.9797 13.1858 19.9296C14.8375 19.8355 16.1245 19.3902 16.843 19.0802C18.2007 18.5028 19.1999 17.7478 19.8534 17.1621C20.8623 16.2563 21.5486 15.2914 22.001 14.4988C22.7827 13.1172 23.0967 11.8681 23.2344 11.1339C23.3372 10.6504 23.4493 9.83173 23.4212 8.82467Z" fill="#1A1615"/>
</g>
</g>
<path d="M36.2682 19H31.4131V4.67273H36.3661C37.7886 4.67273 39.0105 4.95955 40.0319 5.5332C41.0579 6.10219 41.8461 6.92069 42.3964 7.98871C42.9468 9.05672 43.2219 10.3346 43.2219 11.8224C43.2219 13.3148 42.9444 14.5973 42.3895 15.67C41.8391 16.7427 41.0439 17.5659 40.0039 18.1395C38.9685 18.7132 37.7233 19 36.2682 19ZM34.0086 16.7544H36.1423C37.1403 16.7544 37.9728 16.5725 38.6397 16.2087C39.3067 15.8403 39.808 15.2923 40.1438 14.5647C40.4796 13.8325 40.6475 12.9184 40.6475 11.8224C40.6475 10.7264 40.4796 9.81693 40.1438 9.09403C39.808 8.36648 39.3113 7.82314 38.6537 7.46403C38.0008 7.10025 37.1893 6.91836 36.2192 6.91836H34.0086V16.7544ZM45.576 19V8.25454H48.0315V10.0455H48.1434C48.3393 9.42517 48.6751 8.94712 49.1508 8.61133C49.6312 8.27087 50.1792 8.10064 50.7948 8.10064C50.9347 8.10064 51.091 8.10763 51.2635 8.12163C51.4408 8.13095 51.5877 8.14728 51.7043 8.1706V10.5002C51.597 10.4629 51.4268 10.4302 51.1936 10.4022C50.9651 10.3696 50.7435 10.3533 50.529 10.3533C50.0673 10.3533 49.6522 10.4535 49.2838 10.6541C48.92 10.85 48.6332 11.1228 48.4233 11.4726C48.2134 11.8224 48.1085 12.2258 48.1085 12.6828V19H45.576ZM57.7014 19.2099C56.624 19.2099 55.6936 18.986 54.9101 18.5383C54.1312 18.0859 53.5319 17.4469 53.1122 16.6214C52.6924 15.7913 52.4826 14.8142 52.4826 13.6902C52.4826 12.5849 52.6924 11.6148 53.1122 10.78C53.5366 9.94052 54.1289 9.28758 54.8891 8.8212C55.6493 8.35015 56.5424 8.11463 57.5685 8.11463C58.2307 8.11463 58.8557 8.2219 59.4433 8.43643C60.0356 8.64631 60.558 8.97277 61.0104 9.41584C61.4674 9.8589 61.8265 10.4232 62.0877 11.1088C62.3489 11.7897 62.4795 12.6012 62.4795 13.5433V14.3199H53.6718V12.6129H60.0519C60.0473 12.1279 59.9423 11.6964 59.7371 11.3187C59.5319 10.9362 59.2451 10.6354 58.8767 10.4162C58.5129 10.197 58.0885 10.0874 57.6034 10.0874C57.0858 10.0874 56.631 10.2134 56.2393 10.4652C55.8475 10.7124 55.542 11.0388 55.3228 11.4446C55.1083 11.8457 54.9987 12.2864 54.994 12.7668V14.2569C54.994 14.8818 55.1083 15.4182 55.3368 15.8659C55.5653 16.309 55.8848 16.6494 56.2952 16.8873C56.7056 17.1205 57.186 17.2371 57.7364 17.2371C58.1048 17.2371 58.4383 17.1858 58.7367 17.0832C59.0352 16.9759 59.2941 16.8197 59.5133 16.6145C59.7325 16.4092 59.898 16.1551 60.01 15.8519L62.3745 16.1178C62.2253 16.7427 61.9408 17.2884 61.5211 17.7548C61.106 18.2165 60.5743 18.5756 59.926 18.8321C59.2777 19.0839 58.5362 19.2099 57.7014 19.2099ZM69.379 19.2099C68.3017 19.2099 67.3712 18.986 66.5877 18.5383C65.8089 18.0859 65.2096 17.4469 64.7898 16.6214C64.3701 15.7913 64.1602 14.8142 64.1602 13.6902C64.1602 12.5849 64.3701 11.6148 64.7898 10.78C65.2142 9.94052 65.8065 9.28758 66.5667 8.8212C67.3269 8.35015 68.2201 8.11463 69.2461 8.11463C69.9084 8.11463 70.5333 8.2219 71.121 8.43643C71.7133 8.64631 72.2356 8.97277 72.688 9.41584C73.1451 9.8589 73.5042 10.4232 73.7653 11.1088C74.0265 11.7897 74.1571 12.6012 74.1571 13.5433V14.3199H65.3495V12.6129H71.7296C71.7249 12.1279 71.62 11.6964 71.4148 11.3187C71.2096 10.9362 70.9227 10.6354 70.5543 10.4162C70.1905 10.197 69.7661 10.0874 69.2811 10.0874C68.7634 10.0874 68.3087 10.2134 67.9169 10.4652C67.5251 10.7124 67.2197 11.0388 67.0005 11.4446C66.7859 11.8457 66.6763 12.2864 66.6717 12.7668V14.2569C66.6717 14.8818 66.7859 15.4182 67.0145 15.8659C67.243 16.309 67.5625 16.6494 67.9729 16.8873C68.3833 17.1205 68.8637 17.2371 69.414 17.2371C69.7824 17.2371 70.1159 17.1858 70.4144 17.0832C70.7129 16.9759 70.9717 16.8197 71.1909 16.6145C71.4101 16.4092 71.5757 16.1551 71.6876 15.8519L74.0522 16.1178C73.9029 16.7427 73.6184 17.2884 73.1987 17.7548C72.7836 18.2165 72.2519 18.5756 71.6037 18.8321C70.9554 19.0839 70.2138 19.2099 69.379 19.2099ZM78.832 4.67273V19H76.2995V4.67273H78.832ZM81.4362 19V8.25454H83.9686V19H81.4362ZM82.7094 6.72947C82.3083 6.72947 81.9632 6.59655 81.674 6.33072C81.3849 6.06021 81.2403 5.73608 81.2403 5.35831C81.2403 4.97587 81.3849 4.65174 81.674 4.3859C81.9632 4.1154 82.3083 3.98015 82.7094 3.98015C83.1151 3.98015 83.4603 4.1154 83.7448 4.3859C84.0339 4.65174 84.1785 4.97587 84.1785 5.35831C84.1785 5.73608 84.0339 6.06021 83.7448 6.33072C83.4603 6.59655 83.1151 6.72947 82.7094 6.72947ZM91.2599 19.2099C90.2106 19.2099 89.3011 18.979 88.5316 18.5173C87.7621 18.0556 87.1651 17.4096 86.7407 16.5795C86.3209 15.7493 86.1111 14.7792 86.1111 13.6692C86.1111 12.5593 86.3209 11.5868 86.7407 10.752C87.1651 9.9172 87.7621 9.26893 88.5316 8.80721C89.3011 8.34549 90.2106 8.11463 91.2599 8.11463C92.3093 8.11463 93.2187 8.34549 93.9883 8.80721C94.7578 9.26893 95.3524 9.9172 95.7722 10.752C96.1966 11.5868 96.4088 12.5593 96.4088 13.6692C96.4088 14.7792 96.1966 15.7493 95.7722 16.5795C95.3524 17.4096 94.7578 18.0556 93.9883 18.5173C93.2187 18.979 92.3093 19.2099 91.2599 19.2099ZM91.2739 17.1811C91.8429 17.1811 92.3186 17.0249 92.7011 16.7124C93.0835 16.3953 93.368 15.9708 93.5545 15.4392C93.7458 14.9075 93.8414 14.3152 93.8414 13.6623C93.8414 13.0047 93.7458 12.41 93.5545 11.8783C93.368 11.342 93.0835 10.9153 92.7011 10.5981C92.3186 10.281 91.8429 10.1224 91.2739 10.1224C90.6909 10.1224 90.2059 10.281 89.8188 10.5981C89.4364 10.9153 89.1496 11.342 88.9583 11.8783C88.7718 12.41 88.6785 13.0047 88.6785 13.6623C88.6785 14.3152 88.7718 14.9075 88.9583 15.4392C89.1496 15.9708 89.4364 16.3953 89.8188 16.7124C90.2059 17.0249 90.6909 17.1811 91.2739 17.1811Z" fill="#1A1615"/>
<defs>
<clipPath id="clip0_1015_15123">
<rect width="24" height="24" fill="white"/>
</clipPath>
<clipPath id="clip1_1015_15123">
<rect width="24" height="24" fill="white"/>
</clipPath>
</defs>
</svg>
