<svg width="76" height="76" viewBox="0 0 76 76" fill="none" xmlns="http://www.w3.org/2000/svg">
<g clip-path="url(#clip0_650_12627)">
<path d="M60.1672 0.33847H15.8342C7.45379 0.33847 0.660156 7.1321 0.660156 15.5125V59.8445C0.660156 68.2248 7.45379 75.0185 15.8342 75.0185H60.1672C68.5475 75.0185 75.3412 68.2248 75.3412 59.8445V15.5125C75.3412 7.1321 68.5475 0.33847 60.1672 0.33847Z" fill="white"/>
<path d="M60.1672 0.33847H15.8342C7.45379 0.33847 0.660156 7.1321 0.660156 15.5125V59.8445C0.660156 68.2248 7.45379 75.0185 15.8342 75.0185H60.1672C68.5475 75.0185 75.3412 68.2248 75.3412 59.8445V15.5125C75.3412 7.1321 68.5475 0.33847 60.1672 0.33847Z" stroke="#E4E2E2" stroke-width="1.319"/>
<path d="M43.8787 43.5655C41.37 44.5043 38.6064 44.5043 36.0977 43.5655C35.1577 41.0755 35.1577 38.2825 36.0967 35.7915C38.6056 34.8515 41.3699 34.8515 43.8787 35.7915C44.8176 38.2977 44.8176 41.0592 43.8787 43.5655ZM58.1187 36.6155H47.3877L54.9757 29.0315C53.7818 27.3572 52.3171 25.8938 50.6417 24.7015L43.0517 32.2845V21.5595C41.0235 21.2194 38.9529 21.2194 36.9247 21.5595V32.2845L29.3347 24.7005C27.6592 25.8933 26.1941 27.357 24.9997 29.0315L32.5897 36.6155H21.8567C21.5917 38.7005 21.5067 40.6605 21.8567 42.7405H32.5897L24.9997 50.3255C26.1938 51.9999 27.6585 53.4636 29.3337 54.6565L36.9237 47.0715V57.7985C38.9487 58.1375 41.0257 58.1385 43.0517 57.7985V47.0715L50.6417 54.6565C52.3166 53.4635 53.781 51.9998 54.9747 50.3255L47.3847 42.7405H58.1197C58.4604 40.713 58.4594 38.6429 58.1187 36.6155Z" fill="#FF4A00"/>
</g>
<defs>
<clipPath id="clip0_650_12627">
<rect width="76" height="76" fill="white" transform="translate(0 -0.321533)"/>
</clipPath>
</defs>
</svg>
