<svg width="76" height="76" viewBox="0 0 76 76" fill="none" xmlns="http://www.w3.org/2000/svg">
<g clip-path="url(#clip0_643_10561)">
<path d="M60.1691 0.33847H15.8361C7.45574 0.33847 0.662109 7.1321 0.662109 15.5125V59.8445C0.662109 68.2248 7.45574 75.0185 15.8361 75.0185H60.1691C68.5495 75.0185 75.3431 68.2248 75.3431 59.8445V15.5125C75.3431 7.1321 68.5495 0.33847 60.1691 0.33847Z" fill="white"/>
<path d="M60.1691 0.33847H15.8361C7.45574 0.33847 0.662109 7.1321 0.662109 15.5125V59.8445C0.662109 68.2248 7.45574 75.0185 15.8361 75.0185H60.1691C68.5495 75.0185 75.3431 68.2248 75.3431 59.8445V15.5125C75.3431 7.1321 68.5495 0.33847 60.1691 0.33847Z" stroke="#E4E2E2" stroke-width="1.319"/>
<mask id="mask0_643_10561" style="mask-type:luminance" maskUnits="userSpaceOnUse" x="19" y="22" width="38" height="31">
<path d="M19.5293 22.2615H56.4743V52.7115H19.5293V22.2615Z" fill="white"/>
</mask>
<g mask="url(#mask0_643_10561)">
<path d="M40.4277 37.4605L44.0297 41.5785L48.8727 44.6735L49.7157 37.4875L48.8727 30.4645L43.9367 33.1825L40.4277 37.4625V37.4605Z" fill="#00832D"/>
<path d="M19.5273 44.0045V50.1275C19.5276 50.7992 19.7946 51.4433 20.2695 51.9183C20.7445 52.3933 21.3886 52.6602 22.0603 52.6605H28.1843L29.4523 48.0345L28.1843 44.0045L23.9833 42.7365L19.5273 44.0045Z" fill="#0066DA"/>
<path d="M28.1843 22.2615L19.5273 30.9185L23.9833 32.1835L28.1833 30.9185L29.4293 26.9435L28.1843 22.2615Z" fill="#E94235"/>
<path d="M19.5273 44.0065H28.1843V30.9175H19.5273V44.0065Z" fill="#2684FC"/>
<path d="M54.4011 25.9265L48.8711 30.4635V44.6725L54.4241 49.2265C55.2561 49.8785 56.4721 49.2845 56.4721 48.2285V26.9055C56.4721 25.8365 55.2261 25.2455 54.4011 25.9265Z" fill="#00AC47"/>
<path d="M40.4276 37.4605V44.0035H28.1836V52.6605H46.3396C47.0113 52.6602 47.6554 52.3933 48.1304 51.9183C48.6054 51.4433 48.8723 50.7992 48.8726 50.1275V44.6725L40.4276 37.4605Z" fill="#00AC47"/>
<path d="M46.3395 22.2615H28.1855V30.9185H40.4295V37.4615L48.8745 30.4635V24.7945C48.8743 24.1228 48.6073 23.4786 48.1324 23.0037C47.6574 22.5287 47.0133 22.2617 46.3415 22.2615H46.3395Z" fill="#FFBA00"/>
</g>
</g>
<defs>
<clipPath id="clip0_643_10561">
<rect width="76" height="76" fill="white" transform="translate(0 -0.321533)"/>
</clipPath>
</defs>
</svg>
