<svg width="76" height="76" viewBox="0 0 76 76" fill="none" xmlns="http://www.w3.org/2000/svg">
<g clip-path="url(#clip0_650_12633)">
<path d="M60.1672 0.338467H15.8342C7.45379 0.338467 0.660156 7.1321 0.660156 15.5125V59.8445C0.660156 68.2248 7.45379 75.0185 15.8342 75.0185H60.1672C68.5475 75.0185 75.3412 68.2248 75.3412 59.8445V15.5125C75.3412 7.1321 68.5475 0.338467 60.1672 0.338467Z" fill="white"/>
<path d="M60.1672 0.338467H15.8342C7.45379 0.338467 0.660156 7.1321 0.660156 15.5125V59.8445C0.660156 68.2248 7.45379 75.0185 15.8342 75.0185H60.1672C68.5475 75.0185 75.3412 68.2248 75.3412 59.8445V15.5125C75.3412 7.1321 68.5475 0.338467 60.1672 0.338467Z" stroke="#E4E2E2" stroke-width="1.319"/>
<path fill-rule="evenodd" clip-rule="evenodd" d="M23.3918 45.9755C23.0668 46.5285 22.7008 47.1705 22.3898 47.6815C22.1118 48.1715 22.2608 48.8015 22.7258 49.1005L29.2408 53.2735C29.353 53.346 29.479 53.3945 29.6108 53.416C29.7426 53.4375 29.8774 53.4315 30.0068 53.3985C30.2678 53.3325 30.4918 53.1585 30.6298 52.9185C30.8898 52.4645 31.2258 51.8755 31.5918 51.2445C34.1728 46.8105 36.7698 47.3525 41.4508 49.6795L47.9108 52.8765C48.0312 52.9364 48.1627 52.9705 48.297 52.9767C48.4313 52.9829 48.5655 52.961 48.6908 52.9125C48.9458 52.8145 49.1508 52.6125 49.2598 52.3555L52.3618 45.0525C52.5818 44.5305 52.3578 43.9225 51.8608 43.6855C49.6838 42.6214 47.5118 41.547 45.3448 40.4625C36.5638 36.0225 29.1008 36.3105 23.3918 45.9755Z" fill="url(#paint0_linear_650_12633)"/>
<path fill-rule="evenodd" clip-rule="evenodd" d="M52.6078 29.4035C52.9338 28.8505 53.2998 28.2095 53.6098 27.6985C53.8878 27.2085 53.7398 26.5785 53.2738 26.2785L46.7588 22.1065C46.646 22.0268 46.5176 21.9722 46.3821 21.9461C46.2465 21.9201 46.107 21.9233 45.9728 21.9555C45.8372 21.989 45.71 22.0503 45.5993 22.1355C45.4886 22.2207 45.3968 22.3279 45.3298 22.4505C45.0698 22.9045 44.7338 23.4945 44.3678 24.1255C41.7868 28.5585 39.1898 28.0155 34.5088 25.6905L28.0688 22.5085C27.9484 22.4486 27.8169 22.4144 27.6826 22.4082C27.5483 22.402 27.4141 22.4239 27.2888 22.4725C27.1614 22.5224 27.0454 22.5975 26.9477 22.6932C26.8499 22.7888 26.7724 22.9032 26.7198 23.0295L23.6178 30.3325C23.3978 30.8535 23.6218 31.4625 24.1188 31.6985C25.4818 32.3665 28.1938 33.6965 30.6348 34.9225C39.4358 39.3565 46.8988 39.0585 52.6078 29.4035Z" fill="url(#paint1_linear_650_12633)"/>
</g>
<defs>
<linearGradient id="paint0_linear_650_12633" x1="52.1868" y1="55.4275" x2="44.3868" y2="38.2345" gradientUnits="userSpaceOnUse">
<stop offset="0.18" stop-color="#0052CC"/>
<stop offset="1" stop-color="#2684FF"/>
</linearGradient>
<linearGradient id="paint1_linear_650_12633" x1="23.8128" y1="19.9465" x2="31.6248" y2="37.1475" gradientUnits="userSpaceOnUse">
<stop offset="0.18" stop-color="#0052CC"/>
<stop offset="1" stop-color="#2684FF"/>
</linearGradient>
<clipPath id="clip0_650_12633">
<rect width="76" height="76" fill="white" transform="translate(0 -0.321533)"/>
</clipPath>
</defs>
</svg>
