<svg width="76" height="76" viewBox="0 0 76 76" fill="none" xmlns="http://www.w3.org/2000/svg">
<g clip-path="url(#clip0_643_10577)">
<path d="M60.1672 0.33847H15.8342C7.45379 0.33847 0.660156 7.1321 0.660156 15.5125V59.8445C0.660156 68.2248 7.45379 75.0185 15.8342 75.0185H60.1672C68.5475 75.0185 75.3412 68.2248 75.3412 59.8445V15.5125C75.3412 7.1321 68.5475 0.33847 60.1672 0.33847Z" fill="white"/>
<path d="M60.1672 0.33847H15.8342C7.45379 0.33847 0.660156 7.1321 0.660156 15.5125V59.8445C0.660156 68.2248 7.45379 75.0185 15.8342 75.0185H60.1672C68.5475 75.0185 75.3412 68.2248 75.3412 59.8445V15.5125C75.3412 7.1321 68.5475 0.33847 60.1672 0.33847Z" stroke="#E4E2E2" stroke-width="1.319"/>
<path d="M56.375 35.7555H45.18L54.875 30.1575L52.953 26.8255L43.256 32.4235L48.853 22.7275L45.522 20.8045L39.924 30.4975V19.3035H36.076V30.4985L30.479 20.8045L27.147 22.7275L32.743 32.4205L23.049 26.8255L21.125 30.1575L30.82 35.7555H19.625V39.6035H30.82L21.126 45.2015L23.049 48.5335L32.745 42.9355L27.148 52.6305L30.478 54.5545L36.078 44.8595V56.0535H39.925V44.6195L45.625 54.4925L48.749 52.6895L43.048 42.8135L52.951 48.5315L54.875 45.2005L45.181 39.6015H56.375V35.7555ZM38 42.9085C37.1395 42.9088 36.2922 42.6969 35.5332 42.2914C34.7743 41.8859 34.1271 41.2994 33.6491 40.5838C33.171 39.8683 32.8769 39.0459 32.7929 38.1896C32.7088 37.3332 32.8373 36.4693 33.167 35.6745C33.5631 34.7187 34.2336 33.9018 35.0939 33.3271C35.9541 32.7523 36.9654 32.4455 38 32.4455C38.6869 32.4453 39.3672 32.5806 40.0018 32.8434C40.6365 33.1063 41.2131 33.4916 41.6988 33.9774C42.1845 34.4631 42.5697 35.0399 42.8324 35.6746C43.0952 36.3093 43.2303 36.9895 43.23 37.6765C43.23 39.0638 42.6791 40.3944 41.6983 41.3757C40.7176 42.357 39.3874 42.9077 38 42.9085Z" fill="#625DF5"/>
</g>
<defs>
<clipPath id="clip0_643_10577">
<rect width="76" height="76" fill="white" transform="translate(0 -0.321533)"/>
</clipPath>
</defs>
</svg>
