<svg width="76" height="76" viewBox="0 0 76 76" fill="none" xmlns="http://www.w3.org/2000/svg">
<g clip-path="url(#clip0_650_12640)">
<path d="M60.1672 0.338467H15.8342C7.45379 0.338467 0.660156 7.1321 0.660156 15.5125V59.8445C0.660156 68.2248 7.45379 75.0185 15.8342 75.0185H60.1672C68.5475 75.0185 75.3412 68.2248 75.3412 59.8445V15.5125C75.3412 7.1321 68.5475 0.338467 60.1672 0.338467Z" fill="white"/>
<path d="M60.1672 0.338467H15.8342C7.45379 0.338467 0.660156 7.1321 0.660156 15.5125V59.8445C0.660156 68.2248 7.45379 75.0185 15.8342 75.0185H60.1672C68.5475 75.0185 75.3412 68.2248 75.3412 59.8445V15.5125C75.3412 7.1321 68.5475 0.338467 60.1672 0.338467Z" stroke="#E4E2E2" stroke-width="1.319"/>
<path d="M38 19.3035C27.865 19.3035 19.625 27.5435 19.625 37.6785C19.625 47.8135 27.865 56.0535 38 56.0535C48.135 56.0535 56.375 47.8135 56.375 37.6785C56.375 27.5435 48.135 19.3035 38 19.3035Z" fill="#FDDD4C"/>
<path d="M29.9529 42.4685C29.5509 41.8605 30.5609 40.9405 30.1499 40.1675C29.9129 39.7215 29.5259 39.4435 29.0609 39.3855C28.8414 39.3575 28.6184 39.3816 28.41 39.4557C28.2015 39.5299 28.0134 39.6521 27.8609 39.8125C27.3989 40.3155 27.3269 41.0015 27.4159 41.2435C27.4489 41.3335 27.5009 41.3575 27.5379 41.3625C27.7899 41.3955 27.9309 40.7485 28.0179 40.6135C28.2589 40.2425 28.8049 40.1305 29.1829 40.3735C29.8979 40.8365 29.2779 41.5845 29.3309 42.2165C29.3829 42.8315 29.7669 43.0785 30.1109 43.1045C30.4449 43.1175 30.6789 42.9315 30.7379 42.7955C30.8799 42.4715 30.2829 42.9685 29.9529 42.4685ZM44.8999 36.8855C44.6987 36.8599 44.4951 36.8599 44.2939 36.8855C44.1319 36.6815 43.9869 36.3505 43.9049 35.9635C43.7599 35.2765 43.7749 34.7785 44.1809 34.7135C44.5879 34.6495 44.7849 35.0655 44.9309 35.7525C45.0279 36.2145 45.0079 36.6385 44.8999 36.8855ZM40.4469 37.2945C40.4629 37.4505 40.4689 37.6075 40.4639 37.7525C40.8579 37.7755 41.1359 37.9625 41.2109 38.0815C41.2489 38.1415 41.2329 38.1815 41.2209 38.2005C41.1809 38.2635 41.0929 38.2545 40.9109 38.2335C40.7415 38.2116 40.5706 38.2033 40.3999 38.2085C40.3029 38.5065 40.0139 38.5345 39.8119 38.3135C39.6699 38.3565 39.3919 38.5335 39.3089 38.3415C39.3089 38.2455 39.4089 38.1065 39.5889 37.9835C39.467 37.7476 39.3811 37.4948 39.3339 37.2335C39.1071 37.2773 38.8834 37.3354 38.6639 37.4075C38.5799 37.4345 38.2429 37.5865 38.2039 37.4155C38.1769 37.2965 38.3609 37.1015 38.5559 36.9605C38.7739 36.8065 39.0159 36.6965 39.2659 36.6325C39.2599 36.2595 39.3559 35.9995 39.6259 35.9565C39.9619 35.9035 40.1699 36.1625 40.3139 36.6405C40.7199 36.7535 41.1249 37.0335 41.3039 37.3225C41.3739 37.4345 41.3869 37.5205 41.3419 37.5665C41.2299 37.6825 40.6069 37.3455 40.4469 37.2945ZM43.1149 38.9695C43.3729 39.0945 43.6559 39.0455 43.7479 38.8595C43.8409 38.6745 43.7069 38.4235 43.4499 38.2995C43.1919 38.1735 42.9089 38.2225 42.8159 38.4085C42.7239 38.5935 42.8569 38.8455 43.1149 38.9695ZM44.3829 38.0485C44.3869 37.7655 44.5609 37.5385 44.7699 37.5425C44.9789 37.5465 45.1439 37.7785 45.1399 38.0625C45.1349 38.3445 44.9609 38.5715 44.7519 38.5675C44.5439 38.5645 44.3779 38.3325 44.3819 38.0495L44.3829 38.0485Z" fill="black"/>
<path fill-rule="evenodd" clip-rule="evenodd" d="M50.047 41.5215C50.045 41.5155 50.051 41.5365 50.047 41.5215C50.466 41.5215 51.125 41.9975 51.125 43.1475C51.125 44.2915 50.644 45.5875 50.53 45.8745C48.798 49.9725 44.663 52.2545 39.739 52.1095C35.147 51.9755 31.232 49.5835 29.518 45.6845C28.482 45.6865 27.413 45.2365 26.601 44.5255C25.746 43.7775 25.218 42.8085 25.115 41.7985C25.035 41.0125 25.132 40.2805 25.382 39.6425L24.42 38.8375C20.016 35.1675 33.79 20.0535 38.196 23.8475C38.218 23.8655 39.695 25.2955 39.698 25.2995C41.822 24.4095 47.514 22.7135 47.52 26.6595C47.523 27.9695 46.677 29.4985 45.321 30.8845C46.888 32.3185 46.475 34.3555 46.724 36.2245L47.268 36.3745C48.305 36.6605 49.043 37.0445 49.404 37.4185C49.765 37.7915 49.944 38.1535 50.009 38.5785C50.069 38.9205 50.062 39.5255 49.604 40.2015C49.769 40.6375 49.919 41.0725 50.047 41.5215ZM29.44 44.6215C29.594 44.6255 29.747 44.6155 29.896 44.5895C31.506 44.3195 31.927 42.5935 31.662 40.8995C31.362 38.9855 30.052 38.3115 29.162 38.2635C28.9386 38.2519 28.7146 38.2677 28.495 38.3105C26.906 38.6265 26.009 39.9605 26.186 41.6925C26.346 43.2605 27.952 44.5815 29.44 44.6215ZM25.843 38.7805C26.376 38.0165 27.247 37.4635 28.235 37.2735C29.494 33.9395 31.595 30.8665 34.377 28.7535C36.441 27.0535 38.667 25.8335 38.667 25.8335C38.667 25.8335 37.468 24.4615 37.106 24.3605C34.879 23.7675 30.068 27.0415 26.996 31.3685C25.754 33.1185 23.976 36.2185 24.826 37.8135C24.93 38.0105 25.524 38.5185 25.843 38.7805ZM43.9 43.8555C43.9017 43.8734 43.8978 43.8913 43.8888 43.9069C43.8799 43.9225 43.8663 43.9349 43.85 43.9425C43.85 43.9425 42.06 44.7635 39.217 43.8955C39.319 44.7475 40.352 45.0705 41.074 45.1875C44.597 45.7855 47.89 43.7975 48.631 43.2975C48.759 43.2105 48.63 43.4325 48.607 43.4645C47.699 44.6195 45.26 45.9575 42.086 45.9575C40.702 45.9575 39.318 45.4755 38.81 44.7355C38.022 43.5885 38.771 41.9135 40.084 42.0875C42.304 42.3355 44.58 42.1495 46.636 41.2075C48.428 40.3865 49.105 39.4835 49.003 38.7515C48.845 37.6175 47.163 37.4405 46.313 37.1645C45.944 37.0445 45.762 36.9475 45.72 36.2605C45.702 35.9605 45.65 34.9155 45.63 34.4825C45.596 33.7255 45.504 32.6895 44.853 32.2625C44.6868 32.1552 44.4947 32.0947 44.297 32.0875C44.1861 32.0797 44.0746 32.0901 43.967 32.1185C43.615 32.1785 43.4 32.3555 43.147 32.5655L43.102 32.6015C42.291 33.2695 41.606 33.3785 40.843 33.3465C40.5958 33.3336 40.3491 33.3136 40.103 33.2865C39.865 33.2645 39.617 33.2405 39.352 33.2245L39.028 33.2065C37.752 33.1415 36.383 34.2295 36.155 35.7755C35.901 37.4995 36.865 38.5565 37.492 39.2435C37.647 39.4135 37.782 39.5605 37.872 39.6895C37.93 39.7675 37.997 39.8775 37.997 39.9825C37.997 40.1065 37.915 40.2055 37.835 40.2895C36.533 41.6115 36.116 43.7125 36.607 45.4625C36.668 45.6805 36.747 45.8895 36.838 46.0895C37.989 48.7455 41.562 49.9825 45.051 48.8575C47.496 48.0695 49.657 46.1635 50.097 43.5355C50.202 42.8505 50.047 42.5855 49.838 42.4585C49.617 42.3235 49.351 42.3705 49.351 42.3705C49.351 42.3705 49.23 41.5525 48.887 40.8085C47.87 41.6005 46.56 42.1575 45.563 42.4395C43.966 42.8925 42.241 43.0685 40.59 42.8545C39.92 42.7685 39.471 42.7105 39.278 43.3285C41.48 44.1245 43.81 43.7835 43.81 43.7835C43.8315 43.7812 43.8529 43.7875 43.8698 43.801C43.8866 43.8145 43.8975 43.834 43.9 43.8555ZM37.548 28.4135C36.344 29.0215 35 30.1035 33.908 31.3495C33.869 31.3945 33.927 31.4555 33.974 31.4215C34.917 30.7435 36.21 30.1145 37.904 29.7065C39.801 29.2495 41.628 29.4415 42.744 29.6945C42.8 29.7065 42.834 29.6115 42.784 29.5845C42.048 29.1745 40.916 28.8985 40.114 28.8925C40.1051 28.8924 40.0964 28.8899 40.0888 28.8852C40.0813 28.8804 40.0752 28.8737 40.0712 28.8657C40.0673 28.8577 40.0656 28.8488 40.0665 28.8399C40.0673 28.831 40.0706 28.8226 40.076 28.8155C40.214 28.6315 40.404 28.4495 40.578 28.3175C40.617 28.2875 40.593 28.2265 40.544 28.2285C39.546 28.2885 37.265 29.3285 37.274 29.2915C37.332 29.0145 37.516 28.6485 37.611 28.4775C37.634 28.4375 37.59 28.3925 37.548 28.4135Z" fill="black"/>
</g>
<defs>
<clipPath id="clip0_650_12640">
<rect width="76" height="76" fill="white" transform="translate(0 -0.321533)"/>
</clipPath>
</defs>
</svg>
