<svg width="76" height="76" viewBox="0 0 76 76" fill="none" xmlns="http://www.w3.org/2000/svg">
<g clip-path="url(#clip0_650_12649)">
<path d="M60.1691 0.338467H15.8361C7.45574 0.338467 0.662109 7.1321 0.662109 15.5125V59.8445C0.662109 68.2248 7.45574 75.0185 15.8361 75.0185H60.1691C68.5495 75.0185 75.3431 68.2248 75.3431 59.8445V15.5125C75.3431 7.1321 68.5495 0.338467 60.1691 0.338467Z" fill="white"/>
<path d="M60.1691 0.338467H15.8361C7.45574 0.338467 0.662109 7.1321 0.662109 15.5125V59.8445C0.662109 68.2248 7.45574 75.0185 15.8361 75.0185H60.1691C68.5495 75.0185 75.3431 68.2248 75.3431 59.8445V15.5125C75.3431 7.1321 68.5495 0.338467 60.1691 0.338467Z" stroke="#E4E2E2" stroke-width="1.319"/>
<path d="M19.625 31.9035C19.625 27.4935 19.625 25.2875 20.484 23.6035C21.2388 22.1216 22.4433 20.9167 23.925 20.1615C25.61 19.3035 27.815 19.3035 32.225 19.3035H43.775C48.185 19.3035 50.391 19.3035 52.075 20.1615C53.557 20.9165 54.762 22.1214 55.517 23.6035C56.375 25.2875 56.375 27.4935 56.375 31.9035V43.4535C56.375 47.8635 56.375 50.0695 55.517 51.7535C54.7622 53.2354 53.5577 54.4402 52.076 55.1955C50.391 56.0535 48.186 56.0535 43.776 56.0535H32.226C27.816 56.0535 25.61 56.0535 23.926 55.1955C22.444 54.4404 21.239 53.2355 20.484 51.7535C19.625 50.0695 19.625 47.8635 19.625 43.4535V31.9035Z" fill="url(#paint0_linear_650_12649)"/>
<path fill-rule="evenodd" clip-rule="evenodd" d="M29.1348 30.6965C29.1348 29.6565 29.9788 28.8125 31.0188 28.8125C39.7208 28.8125 46.7758 35.8675 46.7758 44.5695C46.7758 45.0813 46.5724 45.5722 46.2105 45.9342C45.8485 46.2961 45.3576 46.4995 44.8458 46.4995H39.9758C39.4641 46.4992 38.9734 46.2957 38.6117 45.9338C38.25 45.5719 38.0468 45.0812 38.0468 44.5695C38.0469 43.6465 37.8652 42.7325 37.5121 41.8797C37.1589 41.0269 36.6413 40.252 35.9887 39.5993C35.336 38.9466 34.5612 38.4288 33.7085 38.0755C32.8558 37.7223 31.9418 37.5405 31.0188 37.5405C30.7714 37.5406 30.5264 37.492 30.2979 37.3974C30.0693 37.3028 29.8616 37.1642 29.6866 36.9893C29.5117 36.8144 29.3729 36.6068 29.2782 36.3783C29.1835 36.1498 29.1348 35.9048 29.1348 35.6575V30.6965Z" fill="white"/>
</g>
<defs>
<linearGradient id="paint0_linear_650_12649" x1="56.376" y1="56.0535" x2="19.625" y2="19.3035" gradientUnits="userSpaceOnUse">
<stop stop-color="#3D35DE"/>
<stop offset="0.265" stop-color="#5137E8"/>
<stop offset="1" stop-color="#793CF8"/>
</linearGradient>
<clipPath id="clip0_650_12649">
<rect width="76" height="76" fill="white" transform="translate(0 -0.321533)"/>
</clipPath>
</defs>
</svg>
