<svg width="256" height="218" viewBox="0 0 256 218" fill="none" xmlns="http://www.w3.org/2000/svg">
<rect x="0.464355" y="0.463867" width="254.362" height="217" rx="14.8532" fill="white" fill-opacity="0.5"/>
<rect x="0.464355" y="0.463867" width="254.362" height="217" rx="14.8532" stroke="white" stroke-width="0.928326"/>
<rect x="37.992" y="37.8933" width="189.933" height="40.4407" rx="2.70047" stroke="#6B7280" stroke-opacity="0.6" stroke-width="1.80031" stroke-dasharray="5.85 5.85"/>
<rect x="22.7446" y="22.7441" width="191.734" height="42.241" rx="3.60063" fill="white"/>
<rect x="23.2088" y="23.2083" width="190.805" height="41.3127" rx="3.13647" stroke="#6B7280" stroke-opacity="0.6" stroke-width="0.928326"/>
<rect width="105.601" height="1.80031" transform="translate(37.1479 22.7441)" fill="white"/>
<path d="M47.8453 21.0397C47.469 20.6238 47.0234 20.297 46.5085 20.0594C45.9936 19.8217 45.4738 19.7029 44.9489 19.7029C44.2657 19.7029 43.6369 19.8663 43.0626 20.193C42.4982 20.5198 42.0526 20.9704 41.7258 21.5447C41.399 22.1091 41.2356 22.7329 41.2356 23.4162C41.2356 24.0895 41.399 24.7134 41.7258 25.2877C42.0625 25.8521 42.513 26.3027 43.0774 26.6393C43.6419 26.9661 44.2657 27.1295 44.9489 27.1295C45.4639 27.1295 45.9738 27.0206 46.4788 26.8027C46.9937 26.575 47.4492 26.268 47.8453 25.8818L48.885 27.0404C48.3503 27.5751 47.7265 28.0009 47.0135 28.3178C46.3006 28.6247 45.5827 28.7782 44.8598 28.7782C43.8597 28.7782 42.9438 28.5406 42.112 28.0653C41.2901 27.59 40.6415 26.9463 40.1662 26.1343C39.6909 25.3224 39.4533 24.4213 39.4533 23.431C39.4533 22.4507 39.6909 21.5546 40.1662 20.7426C40.6514 19.9306 41.3099 19.292 42.1417 18.8266C42.9834 18.3611 43.9092 18.1284 44.9192 18.1284C45.652 18.1284 46.365 18.277 47.0581 18.574C47.7612 18.8612 48.3652 19.2573 48.8702 19.7623L47.8453 21.0397ZM52.3498 17.6234V28.6445H50.6417V17.6234H52.3498ZM56.6412 20.7426V28.6445H54.9479V20.7426H56.6412ZM55.7946 17.4452C56.0817 17.4452 56.3194 17.5442 56.5075 17.7423C56.6957 17.9304 56.7897 18.178 56.7897 18.4849C56.7897 18.782 56.6957 19.0295 56.5075 19.2276C56.3194 19.4256 56.0817 19.5247 55.7946 19.5247C55.5074 19.5247 55.2698 19.4256 55.0816 19.2276C54.8935 19.0295 54.7994 18.782 54.7994 18.4849C54.7994 18.178 54.8935 17.9304 55.0816 17.7423C55.2698 17.5442 55.5074 17.4452 55.7946 17.4452ZM62.4218 20.6832C63.6695 20.6832 64.6003 21.0347 65.2142 21.7378C65.838 22.4408 66.1499 23.431 66.1499 24.7084C66.1499 24.8372 66.14 25.0501 66.1202 25.3471H60.1492C60.2879 25.961 60.575 26.4463 61.0107 26.8027C61.4464 27.1493 61.9762 27.3226 62.6 27.3226C63.0258 27.3226 63.4318 27.2434 63.818 27.0849C64.2042 26.9265 64.5409 26.6988 64.828 26.4017L65.7341 27.3672C65.338 27.7929 64.8627 28.1247 64.3082 28.3623C63.7536 28.5901 63.1397 28.7039 62.4664 28.7039C61.6643 28.7039 60.9563 28.5356 60.3423 28.1989C59.7383 27.8623 59.268 27.3919 58.9313 26.7879C58.5946 26.1838 58.4263 25.4907 58.4263 24.7084C58.4263 23.9262 58.5946 23.233 58.9313 22.629C59.268 22.015 59.7383 21.5397 60.3423 21.2031C60.9563 20.8565 61.6494 20.6832 62.4218 20.6832ZM64.6349 24.0994C64.6052 23.4657 64.3923 22.9656 63.9962 22.5993C63.6001 22.2329 63.0803 22.0497 62.4366 22.0497C61.8128 22.0497 61.2929 22.2329 60.8771 22.5993C60.4612 22.9656 60.2087 23.4657 60.1195 24.0994H64.6349ZM72.5204 20.6832C73.4413 20.6832 74.1592 20.9555 74.6741 21.5001C75.1989 22.0348 75.4613 22.7775 75.4613 23.7281V28.6445H73.7532V24.2034C73.7532 23.6093 73.5848 23.1439 73.2482 22.8072C72.9115 22.4606 72.4461 22.2874 71.852 22.2874C71.2182 22.2973 70.6984 22.5002 70.2924 22.8963C69.8963 23.2924 69.6685 23.8073 69.6091 24.4411V28.6445H67.901V20.7426H69.6091V22.2576C70.1438 21.208 71.1143 20.6832 72.5204 20.6832ZM82.2208 28.1395C81.5672 28.5257 80.9187 28.7188 80.275 28.7188C79.6314 28.7188 79.1016 28.5257 78.6857 28.1395C78.2698 27.7533 78.0619 27.179 78.0619 26.4165V22.3171H76.9479V21.0397H78.0619V18.8711H79.7552V21.0397H82.0871V22.3171H79.7552V26.1046C79.7552 26.5007 79.8245 26.778 79.9631 26.9364C80.1017 27.0948 80.3146 27.1741 80.6018 27.1741C80.9187 27.1741 81.3147 27.0602 81.79 26.8324L82.2208 28.1395ZM96.9219 18.2473V28.6445H95.1989L89.6587 21.1585V28.6445H87.906V18.2473H89.629L95.1989 25.763V18.2473H96.9219ZM104.304 28.6445V27.6791C103.739 28.3722 102.868 28.7188 101.69 28.7188C101.135 28.7188 100.645 28.6148 100.219 28.4069C99.8033 28.189 99.4815 27.8969 99.2537 27.5305C99.026 27.1543 98.9121 26.7334 98.9121 26.268C98.9121 25.5452 99.1745 24.9708 99.6993 24.545C100.224 24.1192 100.957 23.9014 101.898 23.8915H104.289V23.6538C104.289 23.1488 104.126 22.7577 103.799 22.4804C103.482 22.2032 103.017 22.0646 102.403 22.0646C101.64 22.0646 100.863 22.3319 100.071 22.8666L99.3725 21.6784C99.9766 21.3219 100.516 21.0694 100.992 20.9209C101.477 20.7624 102.071 20.6832 102.774 20.6832C103.784 20.6832 104.566 20.9308 105.121 21.4259C105.675 21.9111 105.957 22.5894 105.967 23.4608L105.982 28.6445H104.304ZM102.046 27.3672C102.65 27.3672 103.16 27.2285 103.576 26.9513C104.002 26.6641 104.239 26.3027 104.289 25.867V25.1392H102.15C101.586 25.1392 101.17 25.2233 100.902 25.3917C100.645 25.5501 100.516 25.8175 100.516 26.1937C100.516 26.5502 100.65 26.8374 100.917 27.0552C101.195 27.2632 101.571 27.3672 102.046 27.3672ZM118.577 20.6832C119.478 20.6832 120.186 20.9555 120.701 21.5001C121.216 22.0447 121.473 22.7874 121.473 23.7281V28.6445H119.765V24.2034C119.765 23.5994 119.597 23.129 119.26 22.7924C118.933 22.4458 118.478 22.2725 117.894 22.2725C117.23 22.2923 116.7 22.5349 116.304 23.0003C115.918 23.4558 115.725 24.0351 115.725 24.7381V28.6445H114.017V24.2034C114.017 23.5994 113.849 23.129 113.512 22.7924C113.185 22.4458 112.735 22.2725 112.16 22.2725C111.487 22.2923 110.952 22.5349 110.556 23.0003C110.16 23.4558 109.962 24.0351 109.962 24.7381V28.6445H108.269V20.7426H109.962V22.2725C110.487 21.213 111.442 20.6832 112.829 20.6832C113.532 20.6832 114.116 20.8515 114.581 21.1882C115.057 21.515 115.388 21.9804 115.576 22.5844C116.062 21.3169 117.062 20.6832 118.577 20.6832ZM127.013 20.6832C128.261 20.6832 129.191 21.0347 129.805 21.7378C130.429 22.4408 130.741 23.431 130.741 24.7084C130.741 24.8372 130.731 25.0501 130.711 25.3471H124.74C124.879 25.961 125.166 26.4463 125.602 26.8027C126.038 27.1493 126.567 27.3226 127.191 27.3226C127.617 27.3226 128.023 27.2434 128.409 27.0849C128.795 26.9265 129.132 26.6988 129.419 26.4017L130.325 27.3672C129.929 27.7929 129.454 28.1247 128.899 28.3623C128.345 28.5901 127.731 28.7039 127.058 28.7039C126.255 28.7039 125.547 28.5356 124.934 28.1989C124.33 27.8623 123.859 27.3919 123.522 26.7879C123.186 26.1838 123.017 25.4907 123.017 24.7084C123.017 23.9262 123.186 23.233 123.522 22.629C123.859 22.015 124.33 21.5397 124.934 21.2031C125.547 20.8565 126.241 20.6832 127.013 20.6832ZM129.226 24.0994C129.196 23.4657 128.984 22.9656 128.587 22.5993C128.191 22.2329 127.672 22.0497 127.028 22.0497C126.404 22.0497 125.884 22.2329 125.468 22.5993C125.052 22.9656 124.8 23.4657 124.711 24.0994H129.226ZM138.263 17.9354L138.248 19.4652L139.57 18.6929L140.016 19.5247L138.679 20.2525L140.016 21.01L139.57 21.8418L138.248 21.0545L138.263 22.5844H137.372L137.387 21.0545L136.065 21.8269L135.604 21.01L136.941 20.2525L135.604 19.5247L136.065 18.678L137.387 19.4652L137.372 17.9354H138.263Z" fill="#6B7280"/>
<path d="M41.6475 41.0069C42.8853 41.0069 43.8161 41.403 44.4399 42.1952C45.0736 42.9774 45.3608 44.0419 45.3014 45.3886H38.9145C39.0135 46.161 39.3205 46.7799 39.8354 47.2453C40.3503 47.7107 40.989 47.9434 41.7515 47.9434C42.2268 47.9434 42.6724 47.8592 43.0883 47.6909C43.5042 47.5126 43.8656 47.2651 44.1725 46.9482L44.8112 47.6166C44.435 48.0325 43.9745 48.3543 43.4299 48.582C42.8952 48.7999 42.306 48.9088 41.6624 48.9088C40.8999 48.9088 40.2216 48.7454 39.6275 48.4187C39.0432 48.082 38.5877 47.6166 38.261 47.0225C37.9342 46.4184 37.7708 45.7302 37.7708 44.9579C37.7708 44.1954 37.9342 43.5171 38.261 42.923C38.5877 42.3189 39.0432 41.8486 39.6275 41.5119C40.2216 41.1752 40.8949 41.0069 41.6475 41.0069ZM44.2617 44.4677C44.2221 43.7052 43.9646 43.1012 43.4893 42.6556C43.0239 42.2001 42.41 41.9724 41.6475 41.9724C40.8949 41.9724 40.2711 42.2001 39.776 42.6556C39.2809 43.1012 38.9937 43.7052 38.9145 44.4677H44.2617ZM51.4787 41.0069C52.4095 41.0069 53.1373 41.2792 53.6621 41.8238C54.1869 42.3585 54.4494 43.1012 54.4494 44.0518V48.8643H53.2908V44.3489C53.2908 43.6557 53.0928 43.1111 52.6967 42.715C52.3105 42.3189 51.7708 42.1209 51.0777 42.1209C50.3152 42.1308 49.7013 42.3684 49.2359 42.8338C48.7804 43.2893 48.518 43.9033 48.4487 44.6756V48.8643H47.2901V41.0515H48.4487V42.7744C48.9834 41.6159 49.9934 41.0267 51.4787 41.0069ZM61.0776 48.3295C60.4934 48.7157 59.8943 48.9088 59.2804 48.9088C58.6862 48.9088 58.2109 48.7256 57.8545 48.3592C57.498 47.983 57.3197 47.4284 57.3197 46.6957V42.1952H56.1909V41.2891H57.3197V39.2394H58.4634V41.2891H60.9439V42.1952H58.4634V46.5026C58.4634 46.968 58.5476 47.3096 58.7159 47.5275C58.8942 47.7354 59.1566 47.8394 59.5032 47.8394C59.9092 47.8196 60.325 47.6859 60.7508 47.4383L61.0776 48.3295ZM65.7985 41.0069C67.0363 41.0069 67.9671 41.403 68.5909 42.1952C69.2246 42.9774 69.5118 44.0419 69.4524 45.3886H63.0655C63.1645 46.161 63.4715 46.7799 63.9864 47.2453C64.5013 47.7107 65.14 47.9434 65.9025 47.9434C66.3778 47.9434 66.8234 47.8592 67.2393 47.6909C67.6551 47.5126 68.0166 47.2651 68.3235 46.9482L68.9622 47.6166C68.5859 48.0325 68.1255 48.3543 67.5809 48.582C67.0462 48.7999 66.457 48.9088 65.8133 48.9088C65.0509 48.9088 64.3726 48.7454 63.7785 48.4187C63.1942 48.082 62.7387 47.6166 62.412 47.0225C62.0852 46.4184 61.9218 45.7302 61.9218 44.9579C61.9218 44.1954 62.0852 43.5171 62.412 42.923C62.7387 42.3189 63.1942 41.8486 63.7785 41.5119C64.3726 41.1752 65.0459 41.0069 65.7985 41.0069ZM68.4127 44.4677C68.3731 43.7052 68.1156 43.1012 67.6403 42.6556C67.1749 42.2001 66.561 41.9724 65.7985 41.9724C65.0459 41.9724 64.4221 42.2001 63.927 42.6556C63.4319 43.1012 63.1447 43.7052 63.0655 44.4677H68.4127ZM72.5996 42.7893C72.8571 42.215 73.2235 41.7793 73.6988 41.4822C74.1741 41.1752 74.7435 41.0168 75.4069 41.0069V42.1357C74.5949 42.1258 73.9414 42.3536 73.4463 42.819C72.9512 43.2745 72.669 43.9033 72.5996 44.7054V48.8643H71.4411V41.0515H72.5996V42.7893ZM86.0453 42.9675C85.4116 42.3536 84.6342 42.0466 83.7133 42.0466C83.1786 42.0466 82.6984 42.1704 82.2726 42.418C81.8567 42.6655 81.5299 43.0121 81.2923 43.4577C81.0546 43.8934 80.9358 44.3934 80.9358 44.9579C80.9358 45.5322 81.0546 46.0421 81.2923 46.4877C81.5299 46.9234 81.8567 47.2651 82.2726 47.5126C82.6984 47.7602 83.1786 47.8839 83.7133 47.8839C84.2282 47.8839 84.6887 47.7998 85.0947 47.6314C85.5106 47.4532 85.8572 47.2007 86.1344 46.8739L86.8028 47.5572C86.4463 47.983 86.0007 48.3147 85.466 48.5523C84.9313 48.79 84.3322 48.9088 83.6688 48.9088C82.9162 48.9088 82.2478 48.7454 81.6636 48.4187C81.0794 48.082 80.6189 47.6166 80.2822 47.0225C79.9555 46.4184 79.7921 45.7302 79.7921 44.9579C79.7921 44.1954 79.9555 43.5171 80.2822 42.923C80.6189 42.3189 81.0794 41.8486 81.6636 41.5119C82.2577 41.1752 82.9261 41.0069 83.6688 41.0069C84.2926 41.0069 84.857 41.1109 85.362 41.3188C85.877 41.5169 86.3176 41.7991 86.684 42.1655L86.0453 42.9675ZM90.1381 37.8432V48.8643H88.9795V37.8432H90.1381ZM94.1829 41.0515V48.8643H93.0392V41.0515H94.1829ZM93.6036 38.0066C93.8215 38.0066 93.9997 38.0858 94.1383 38.2442C94.2869 38.3927 94.3611 38.5809 94.3611 38.8086C94.3611 39.0364 94.2869 39.2245 94.1383 39.373C93.9997 39.5216 93.8215 39.5958 93.6036 39.5958C93.3858 39.5958 93.2026 39.5216 93.054 39.373C92.9154 39.2245 92.8461 39.0364 92.8461 38.8086C92.8461 38.5809 92.9154 38.3927 93.054 38.2442C93.2026 38.0858 93.3858 38.0066 93.6036 38.0066ZM100.089 41.0069C101.326 41.0069 102.257 41.403 102.881 42.1952C103.515 42.9774 103.802 44.0419 103.742 45.3886H97.3556C97.4546 46.161 97.7615 46.7799 98.2765 47.2453C98.7914 47.7107 99.4301 47.9434 100.193 47.9434C100.668 47.9434 101.113 47.8592 101.529 47.6909C101.945 47.5126 102.307 47.2651 102.614 46.9482L103.252 47.6166C102.876 48.0325 102.416 48.3543 101.871 48.582C101.336 48.7999 100.747 48.9088 100.103 48.9088C99.3409 48.9088 98.6626 48.7454 98.0685 48.4187C97.4843 48.082 97.0288 47.6166 96.702 47.0225C96.3752 46.4184 96.2119 45.7302 96.2119 44.9579C96.2119 44.1954 96.3752 43.5171 96.702 42.923C97.0288 42.3189 97.4843 41.8486 98.0685 41.5119C98.6626 41.1752 99.336 41.0069 100.089 41.0069ZM102.703 44.4677C102.663 43.7052 102.406 43.1012 101.93 42.6556C101.465 42.2001 100.851 41.9724 100.089 41.9724C99.336 41.9724 98.7122 42.2001 98.217 42.6556C97.7219 43.1012 97.4348 43.7052 97.3556 44.4677H102.703ZM109.92 41.0069C110.851 41.0069 111.578 41.2792 112.103 41.8238C112.628 42.3585 112.89 43.1012 112.89 44.0518V48.8643H111.732V44.3489C111.732 43.6557 111.534 43.1111 111.138 42.715C110.752 42.3189 110.212 42.1209 109.519 42.1209C108.756 42.1308 108.142 42.3684 107.677 42.8338C107.221 43.2893 106.959 43.9033 106.89 44.6756V48.8643H105.731V41.0515H106.89V42.7744C107.424 41.6159 108.434 41.0267 109.92 41.0069ZM119.519 48.3295C118.934 48.7157 118.335 48.9088 117.721 48.9088C117.127 48.9088 116.652 48.7256 116.296 48.3592C115.939 47.983 115.761 47.4284 115.761 46.6957V42.1952H114.632V41.2891H115.761V39.2394H116.904V41.2891H119.385V42.1952H116.904V46.5026C116.904 46.968 116.989 47.3096 117.157 47.5275C117.335 47.7354 117.598 47.8394 117.944 47.8394C118.35 47.8196 118.766 47.6859 119.192 47.4383L119.519 48.3295ZM129.066 41.0069C129.997 41.0069 130.725 41.2792 131.25 41.8238C131.775 42.3585 132.037 43.1012 132.037 44.0518V48.8643H130.879V44.3489C130.879 43.6557 130.681 43.1111 130.284 42.715C129.898 42.3189 129.359 42.1209 128.665 42.1209C127.903 42.1308 127.289 42.3684 126.824 42.8338C126.368 43.2893 126.106 43.9033 126.036 44.6756V48.8643H124.878V41.0515H126.036V42.7744C126.571 41.6159 127.581 41.0267 129.066 41.0069ZM139.482 48.8643V47.6463C138.858 48.488 137.903 48.9088 136.616 48.9088C136.091 48.9088 135.625 48.8048 135.219 48.5969C134.813 48.389 134.502 48.1067 134.284 47.7503C134.066 47.3938 133.957 46.9928 133.957 46.5472C133.957 45.8639 134.214 45.3242 134.729 44.9282C135.244 44.5222 135.962 44.3142 136.883 44.3043H139.453V43.8142C139.453 43.2299 139.274 42.7794 138.918 42.4625C138.561 42.1357 138.042 41.9724 137.358 41.9724C136.556 41.9724 135.729 42.2744 134.878 42.8784L134.388 42.0615C134.942 41.6951 135.452 41.4277 135.918 41.2594C136.393 41.0911 136.947 41.0069 137.581 41.0069C138.542 41.0069 139.279 41.2446 139.794 41.7199C140.319 42.1952 140.586 42.8537 140.596 43.6953L140.611 48.8643H139.482ZM136.838 47.9434C137.502 47.9434 138.066 47.7899 138.532 47.4829C139.007 47.166 139.319 46.7303 139.467 46.1758V45.2252H137.032C135.705 45.2252 135.041 45.651 135.041 46.5026C135.041 46.9383 135.205 47.2898 135.531 47.5572C135.858 47.8146 136.294 47.9434 136.838 47.9434ZM153.224 41.0069C154.135 41.0069 154.848 41.2792 155.363 41.8238C155.878 42.3585 156.135 43.1012 156.135 44.0518V48.8643H154.976V44.3489C154.976 43.6458 154.783 43.0963 154.397 42.7002C154.011 42.3041 153.481 42.106 152.808 42.106C152.006 42.1258 151.377 42.4031 150.922 42.9378C150.476 43.4626 150.253 44.1558 150.253 45.0173V48.8643H149.08V44.3489C149.08 43.6458 148.887 43.0963 148.5 42.7002C148.124 42.3041 147.594 42.106 146.911 42.106C146.119 42.1258 145.49 42.4031 145.025 42.9378C144.569 43.4725 144.342 44.1657 144.342 45.0173V48.8643H143.198V41.0515H144.342V42.819C144.599 42.2249 144.98 41.7793 145.485 41.4822C145.99 41.1752 146.604 41.0168 147.327 41.0069C148.06 41.0069 148.669 41.1851 149.154 41.5416C149.639 41.8981 149.966 42.3982 150.134 43.0418C150.372 42.3684 150.753 41.8634 151.278 41.5268C151.813 41.1901 152.461 41.0168 153.224 41.0069ZM161.793 41.0069C163.031 41.0069 163.962 41.403 164.586 42.1952C165.219 42.9774 165.507 44.0419 165.447 45.3886H159.06C159.159 46.161 159.466 46.7799 159.981 47.2453C160.496 47.7107 161.135 47.9434 161.897 47.9434C162.373 47.9434 162.818 47.8592 163.234 47.6909C163.65 47.5126 164.011 47.2651 164.318 46.9482L164.957 47.6166C164.581 48.0325 164.12 48.3543 163.576 48.582C163.041 48.7999 162.452 48.9088 161.808 48.9088C161.046 48.9088 160.367 48.7454 159.773 48.4187C159.189 48.082 158.733 47.6166 158.407 47.0225C158.08 46.4184 157.917 45.7302 157.917 44.9579C157.917 44.1954 158.08 43.5171 158.407 42.923C158.733 42.3189 159.189 41.8486 159.773 41.5119C160.367 41.1752 161.041 41.0069 161.793 41.0069ZM164.407 44.4677C164.368 43.7052 164.11 43.1012 163.635 42.6556C163.17 42.2001 162.556 41.9724 161.793 41.9724C161.041 41.9724 160.417 42.2001 159.922 42.6556C159.427 43.1012 159.139 43.7052 159.06 44.4677H164.407Z" fill="#6B7280" fill-opacity="0.6"/>
<rect x="37.992" y="94.2146" width="189.933" height="40.4407" rx="2.70047" stroke="#6B7280" stroke-opacity="0.6" stroke-width="1.80031" stroke-dasharray="5.85 5.85"/>
<mask id="path-10-inside-1_334_5044" fill="white">
<path d="M37.0918 150.536C37.0918 150.039 37.4948 149.636 37.992 149.636H227.925C228.422 149.636 228.825 150.039 228.825 150.536V190.977C228.825 191.474 228.422 191.877 227.925 191.877H37.992C37.4948 191.877 37.0918 191.474 37.0918 190.977V150.536Z"/>
</mask>
<path d="M37.0918 150.536C37.0918 150.039 37.4948 149.636 37.992 149.636H227.925C228.422 149.636 228.825 150.039 228.825 150.536V190.977C228.825 191.474 228.422 191.877 227.925 191.877H37.992C37.4948 191.877 37.0918 191.474 37.0918 190.977V150.536Z" fill="#488981"/>
<path d="M37.0918 150.536C37.0918 150.039 37.4948 149.636 37.992 149.636H227.925C228.422 149.636 228.825 150.039 228.825 150.536V190.977C228.825 191.474 228.422 191.877 227.925 191.877H37.992C37.4948 191.877 37.0918 191.474 37.0918 190.977V150.536Z" stroke="black" stroke-width="1.85665" mask="url(#path-10-inside-1_334_5044)"/>
<path d="M75.024 169.505C74.712 169.132 74.3438 168.842 73.9192 168.634C73.5034 168.417 73.0831 168.309 72.6586 168.309C72.1474 168.309 71.6795 168.434 71.2549 168.686C70.8304 168.937 70.4968 169.279 70.2542 169.712C70.0116 170.146 69.8903 170.627 69.8903 171.155C69.8903 171.684 70.0116 172.169 70.2542 172.611C70.4968 173.044 70.8304 173.39 71.2549 173.65C71.6795 173.902 72.1474 174.027 72.6586 174.027C73.0658 174.027 73.4774 173.932 73.8932 173.741C74.3178 173.542 74.6947 173.278 75.024 172.949L76.2326 174.261C75.7474 174.764 75.1756 175.162 74.5171 175.457C73.8673 175.752 73.2131 175.899 72.5546 175.899C71.6622 175.899 70.8521 175.695 70.1242 175.288C69.3964 174.872 68.8246 174.305 68.4087 173.585C67.9928 172.866 67.7849 172.065 67.7849 171.181C67.7849 170.306 67.9971 169.513 68.4217 168.803C68.8462 168.092 69.4268 167.533 70.1632 167.126C70.9084 166.719 71.7315 166.515 72.6326 166.515C73.2911 166.515 73.9409 166.654 74.5821 166.931C75.2232 167.2 75.7691 167.568 76.2196 168.036L75.024 169.505ZM83.1772 175.756L81.7345 173.157H81.5396H79.6421V175.756H77.5886V166.658H81.5396C82.7266 166.658 83.645 166.936 84.2949 167.49C84.9447 168.036 85.2696 168.811 85.2696 169.816C85.2696 170.518 85.1223 171.12 84.8277 171.623C84.5418 172.117 84.1216 172.494 83.5671 172.754L85.5036 175.756H83.1772ZM79.6421 171.441H81.5396C82.1114 171.441 82.549 171.311 82.8523 171.051C83.1642 170.783 83.3201 170.393 83.3201 169.881C83.3201 169.379 83.1642 169.002 82.8523 168.751C82.549 168.491 82.1114 168.361 81.5396 168.361H79.6421V171.441ZM94.0505 166.658V168.361H89.1768V170.336H93.5567V172.039H89.1768V174.053H94.1935V175.756H87.1233V166.658H94.0505ZM101.939 173.988H97.7281L97.0133 175.756H94.8949L98.8459 166.658H100.964L104.85 175.756H102.654L101.939 173.988ZM101.276 172.338L99.8466 168.803L98.404 172.338H101.276ZM111.681 166.658V168.4H108.899V175.756H106.846V168.4H104.078V166.658H111.681ZM119.837 166.658V168.361H114.963V170.336H119.343V172.039H114.963V174.053H119.98V175.756H112.91V166.658H119.837ZM129.214 166.658C130.375 166.658 131.272 166.936 131.904 167.49C132.537 168.036 132.853 168.811 132.853 169.816C132.853 170.873 132.533 171.697 131.891 172.286C131.259 172.866 130.366 173.157 129.214 173.157H127.408V175.756H125.354V166.658H129.214ZM129.11 171.441C129.691 171.441 130.132 171.311 130.436 171.051C130.748 170.783 130.904 170.393 130.904 169.881C130.904 169.379 130.748 169.002 130.436 168.751C130.132 168.491 129.691 168.361 129.11 168.361H127.408V171.441H129.11ZM139.881 175.756L138.438 173.157H138.243H136.346V175.756H134.292V166.658H138.243C139.43 166.658 140.349 166.936 140.999 167.49C141.648 168.036 141.973 168.811 141.973 169.816C141.973 170.518 141.826 171.12 141.531 171.623C141.245 172.117 140.825 172.494 140.271 172.754L142.207 175.756H139.881ZM136.346 171.441H138.243C138.815 171.441 139.253 171.311 139.556 171.051C139.868 170.783 140.024 170.393 140.024 169.881C140.024 169.379 139.868 169.002 139.556 168.751C139.253 168.491 138.815 168.361 138.243 168.361H136.346V171.441ZM148.064 166.515C148.974 166.515 149.801 166.719 150.546 167.126C151.291 167.533 151.876 168.097 152.301 168.816C152.734 169.526 152.951 170.319 152.951 171.194C152.951 172.069 152.734 172.866 152.301 173.585C151.876 174.305 151.291 174.872 150.546 175.288C149.801 175.695 148.974 175.899 148.064 175.899C147.154 175.899 146.327 175.695 145.582 175.288C144.836 174.872 144.247 174.309 143.814 173.598C143.389 172.879 143.177 172.078 143.177 171.194C143.177 170.319 143.389 169.526 143.814 168.816C144.247 168.097 144.832 167.533 145.569 167.126C146.314 166.719 147.145 166.515 148.064 166.515ZM148.09 168.309C147.587 168.309 147.119 168.439 146.686 168.699C146.253 168.95 145.911 169.297 145.66 169.738C145.408 170.18 145.283 170.666 145.283 171.194C145.283 171.731 145.408 172.221 145.66 172.663C145.919 173.105 146.262 173.455 146.686 173.715C147.119 173.975 147.587 174.105 148.09 174.105C148.592 174.105 149.052 173.98 149.467 173.728C149.892 173.468 150.226 173.118 150.468 172.676C150.719 172.225 150.845 171.731 150.845 171.194C150.845 170.666 150.719 170.18 150.468 169.738C150.226 169.297 149.892 168.95 149.467 168.699C149.052 168.439 148.592 168.309 148.09 168.309ZM158.288 166.658C159.449 166.658 160.346 166.936 160.978 167.49C161.611 168.036 161.927 168.811 161.927 169.816C161.927 170.873 161.606 171.697 160.965 172.286C160.333 172.866 159.44 173.157 158.288 173.157H156.481V175.756H154.428V166.658H158.288ZM158.184 171.441C158.764 171.441 159.206 171.311 159.509 171.051C159.821 170.783 159.977 170.393 159.977 169.881C159.977 169.379 159.821 169.002 159.509 168.751C159.206 168.491 158.764 168.361 158.184 168.361H156.481V171.441H158.184ZM167.603 166.515C168.513 166.515 169.34 166.719 170.085 167.126C170.83 167.533 171.415 168.097 171.84 168.816C172.273 169.526 172.49 170.319 172.49 171.194C172.49 172.069 172.273 172.866 171.84 173.585C171.415 174.305 170.83 174.872 170.085 175.288C169.34 175.695 168.513 175.899 167.603 175.899C166.693 175.899 165.866 175.695 165.121 175.288C164.375 174.872 163.786 174.309 163.353 173.598C162.928 172.879 162.716 172.078 162.716 171.194C162.716 170.319 162.928 169.526 163.353 168.816C163.786 168.097 164.371 167.533 165.108 167.126C165.853 166.719 166.684 166.515 167.603 166.515ZM167.629 168.309C167.126 168.309 166.658 168.439 166.225 168.699C165.792 168.95 165.45 169.297 165.199 169.738C164.947 170.18 164.822 170.666 164.822 171.194C164.822 171.731 164.947 172.221 165.199 172.663C165.458 173.105 165.801 173.455 166.225 173.715C166.658 173.975 167.126 174.105 167.629 174.105C168.131 174.105 168.591 173.98 169.007 173.728C169.431 173.468 169.765 173.118 170.007 172.676C170.259 172.225 170.384 171.731 170.384 171.194C170.384 170.666 170.259 170.18 170.007 169.738C169.765 169.297 169.431 168.95 169.007 168.699C168.591 168.439 168.131 168.309 167.629 168.309ZM179.958 169.193C179.49 168.907 178.992 168.681 178.464 168.517C177.944 168.343 177.498 168.257 177.125 168.257C176.77 168.257 176.488 168.322 176.28 168.452C176.072 168.582 175.968 168.772 175.968 169.024C175.968 169.344 176.116 169.591 176.41 169.764C176.713 169.929 177.177 170.102 177.801 170.284C178.425 170.466 178.936 170.648 179.334 170.83C179.742 171.012 180.088 171.285 180.374 171.649C180.66 172.013 180.803 172.494 180.803 173.092C180.803 173.672 180.647 174.175 180.335 174.599C180.032 175.015 179.612 175.331 179.074 175.548C178.537 175.765 177.926 175.873 177.242 175.873C176.506 175.873 175.782 175.743 175.072 175.483C174.361 175.223 173.746 174.868 173.226 174.417L174.045 172.741C174.504 173.157 175.033 173.49 175.63 173.741C176.228 173.993 176.774 174.118 177.268 174.118C177.693 174.118 178.022 174.04 178.256 173.884C178.498 173.728 178.62 173.503 178.62 173.209C178.62 172.975 178.537 172.784 178.373 172.637C178.217 172.481 178.013 172.355 177.762 172.26C177.519 172.164 177.181 172.056 176.748 171.935C176.124 171.762 175.613 171.588 175.215 171.415C174.825 171.242 174.487 170.977 174.201 170.622C173.915 170.267 173.772 169.795 173.772 169.206C173.772 168.66 173.919 168.183 174.214 167.776C174.508 167.36 174.92 167.044 175.448 166.827C175.977 166.602 176.592 166.489 177.294 166.489C177.918 166.489 178.533 166.58 179.139 166.762C179.746 166.944 180.283 167.187 180.751 167.49L179.958 169.193ZM188.326 173.988H184.115L183.4 175.756H181.281L185.232 166.658H187.351L191.237 175.756H189.04L188.326 173.988ZM187.663 172.338L186.233 168.803L184.791 172.338H187.663ZM194.366 166.658V173.962H198.265V175.756H192.313V166.658H194.366Z" fill="white"/>
<rect x="106.757" y="127.019" width="52.6678" height="17.5784" rx="2.91696" fill="black"/>
<path d="M118.274 135.818C118.748 135.919 119.129 136.156 119.417 136.53C119.705 136.895 119.849 137.316 119.849 137.79C119.849 138.475 119.608 139.019 119.125 139.423C118.651 139.82 117.986 140.019 117.13 140.019H113.315V131.828H117.002C117.834 131.828 118.484 132.018 118.95 132.399C119.425 132.781 119.662 133.298 119.662 133.951C119.662 134.434 119.534 134.834 119.277 135.153C119.028 135.472 118.694 135.694 118.274 135.818ZM115.31 135.141H116.617C116.943 135.141 117.192 135.071 117.363 134.931C117.542 134.784 117.632 134.57 117.632 134.29C117.632 134.01 117.542 133.796 117.363 133.648C117.192 133.5 116.943 133.426 116.617 133.426H115.31V135.141ZM116.78 138.408C117.115 138.408 117.371 138.334 117.55 138.187C117.737 138.031 117.83 137.809 117.83 137.522C117.83 137.234 117.733 137.008 117.538 136.845C117.352 136.682 117.091 136.6 116.757 136.6H115.31V138.408H116.78ZM127.435 133.508V140.019H125.44V139.132C125.237 139.42 124.961 139.653 124.611 139.832C124.269 140.003 123.888 140.089 123.468 140.089C122.97 140.089 122.531 139.98 122.149 139.762C121.768 139.536 121.473 139.213 121.263 138.793C121.053 138.373 120.948 137.879 120.948 137.312V133.508H122.931V137.043C122.931 137.479 123.044 137.817 123.269 138.058C123.495 138.299 123.798 138.42 124.18 138.42C124.568 138.42 124.876 138.299 125.101 138.058C125.327 137.817 125.44 137.479 125.44 137.043V133.508H127.435ZM132.497 138.327V140.019H131.482C130.758 140.019 130.194 139.844 129.79 139.494C129.385 139.136 129.183 138.556 129.183 137.755V135.165H128.39V133.508H129.183V131.921H131.178V133.508H132.485V135.165H131.178V137.778C131.178 137.973 131.225 138.113 131.318 138.198C131.412 138.284 131.567 138.327 131.785 138.327H132.497ZM137.237 138.327V140.019H136.222C135.498 140.019 134.934 139.844 134.53 139.494C134.125 139.136 133.923 138.556 133.923 137.755V135.165H133.13V133.508H133.923V131.921H135.918V133.508H137.225V135.165H135.918V137.778C135.918 137.973 135.965 138.113 136.058 138.198C136.152 138.284 136.307 138.327 136.525 138.327H137.237ZM141.312 140.112C140.674 140.112 140.098 139.976 139.585 139.704C139.079 139.431 138.679 139.042 138.383 138.537C138.095 138.031 137.951 137.44 137.951 136.763C137.951 136.094 138.099 135.507 138.395 135.001C138.69 134.488 139.095 134.095 139.608 133.823C140.122 133.551 140.697 133.415 141.335 133.415C141.973 133.415 142.549 133.551 143.062 133.823C143.575 134.095 143.98 134.488 144.275 135.001C144.571 135.507 144.719 136.094 144.719 136.763C144.719 137.432 144.567 138.023 144.264 138.537C143.968 139.042 143.56 139.431 143.039 139.704C142.525 139.976 141.95 140.112 141.312 140.112ZM141.312 138.385C141.693 138.385 142.016 138.245 142.28 137.965C142.552 137.685 142.689 137.284 142.689 136.763C142.689 136.242 142.556 135.841 142.292 135.561C142.035 135.281 141.716 135.141 141.335 135.141C140.946 135.141 140.623 135.281 140.367 135.561C140.11 135.834 139.982 136.234 139.982 136.763C139.982 137.284 140.106 137.685 140.355 137.965C140.612 138.245 140.931 138.385 141.312 138.385ZM149.744 133.438C150.507 133.438 151.113 133.687 151.565 134.185C152.023 134.675 152.253 135.351 152.253 136.215V140.019H150.269V136.483C150.269 136.048 150.157 135.709 149.931 135.468C149.705 135.227 149.402 135.106 149.021 135.106C148.64 135.106 148.336 135.227 148.111 135.468C147.885 135.709 147.772 136.048 147.772 136.483V140.019H145.777V133.508H147.772V134.371C147.975 134.084 148.247 133.858 148.589 133.695C148.931 133.523 149.317 133.438 149.744 133.438Z" fill="white"/>
<rect x="32.7356" y="145.497" width="7.63423" height="7.63423" fill="white" stroke="black" stroke-width="1.80031"/>
<rect x="32.7356" y="188.451" width="7.63423" height="7.63423" fill="white" stroke="black" stroke-width="1.80031"/>
<rect x="225.813" y="145.497" width="7.63423" height="7.63423" fill="white" stroke="black" stroke-width="1.80031"/>
<rect x="225.813" y="188.451" width="7.63423" height="7.63423" fill="white" stroke="black" stroke-width="1.80031"/>
<path d="M194.709 198.889L189.892 175.008L210.466 187.45L200.53 190.159L194.709 198.889Z" fill="black"/>
<path d="M194.709 198.889L189.892 175.008L210.466 187.45L200.53 190.159L194.709 198.889Z" fill="#E4ECEE" stroke="black" stroke-width="1.57772" stroke-linecap="square"/>
<g filter="url(#filter0_d_334_5044)">
<path d="M187.282 198.346L182.465 174.465L203.039 186.907L193.103 189.616L187.282 198.346Z" fill="black"/>
<path d="M187.282 198.346L182.465 174.465L203.039 186.907L193.103 189.616L187.282 198.346Z" fill="#8DB7B6" stroke="black" stroke-width="1.57772" stroke-linecap="square"/>
</g>
<defs>
<filter id="filter0_d_334_5044" x="178.378" y="169.902" width="29.601" height="33.4204" filterUnits="userSpaceOnUse" color-interpolation-filters="sRGB">
<feFlood flood-opacity="0" result="BackgroundImageFix"/>
<feColorMatrix in="SourceAlpha" type="matrix" values="0 0 0 0 0 0 0 0 0 0 0 0 0 0 0 0 0 0 127 0" result="hardAlpha"/>
<feOffset/>
<feGaussianBlur stdDeviation="1.47911"/>
<feColorMatrix type="matrix" values="0 0 0 0 0.552941 0 0 0 0 0.717647 0 0 0 0 0.713726 0 0 0 1 0"/>
<feBlend mode="normal" in2="BackgroundImageFix" result="effect1_dropShadow_334_5044"/>
<feBlend mode="normal" in="SourceGraphic" in2="effect1_dropShadow_334_5044" result="shape"/>
</filter>
</defs>
</svg>
